<?xml version="1.0" standalone="no"?>
<!DOCTYPE svg PUBLIC "-//W3C//DTD SVG 20010904//EN"
 "http://www.w3.org/TR/2001/REC-SVG-20010904/DTD/svg10.dtd">
<svg version="1.0" xmlns="http://www.w3.org/2000/svg"
 width="454.000000pt" height="255.000000pt" viewBox="0 0 454.000000 255.000000"
 preserveAspectRatio="xMidYMid meet">

<g transform="translate(0.000000,255.000000) scale(0.100000,-0.100000)"
fill="#000000" stroke="none">
<path d="M2198 2010 c-9 -6 -236 -84 -505 -174 -892 -300 -1038 -349 -1041
-351 -1 -1 -3 -74 -3 -162 l-1 -161 -32 3 c-17 1 -35 0 -41 -4 -17 -9 -288
-11 -299 -2 -6 5 -71 9 -143 9 l-133 1 0 -25 0 -25 325 3 325 3 0 -27 c0 -27
-2 -28 -51 -28 -46 0 -49 -1 -35 -16 9 -8 16 -20 16 -25 0 -5 5 -9 11 -9 5 0
7 5 4 10 -4 6 7 10 24 10 23 0 31 -5 31 -18 0 -14 -10 -18 -57 -20 -32 -2
-170 -12 -308 -22 -137 -11 -258 -20 -267 -20 -16 0 -18 -14 -18 -160 0 -132
2 -160 14 -160 13 0 159 33 403 91 82 19 236 27 217 11 -5 -5 -99 -30 -209
-57 -110 -26 -249 -60 -310 -74 l-110 -27 -3 -292 -2 -292 1626 0 c1277 0
1631 3 1643 13 10 8 13 8 8 0 -5 -8 14 -11 68 -12 52 0 75 3 75 11 0 9 3 9 12
0 16 -16 170 -16 187 1 11 9 12 9 7 0 -5 -9 3 -12 29 -11 19 1 35 5 35 10 0 4
8 8 18 8 14 0 14 -2 3 -9 -9 -6 13 -9 60 -9 42 1 77 6 81 12 6 8 8 8 8 0 0 -6
18 -11 41 -12 22 -1 38 2 34 7 -3 5 -1 13 5 16 6 4 9 1 8 -7 -4 -17 88 -24
107 -8 10 8 14 7 17 -2 4 -11 11 -11 39 -1 22 9 37 9 43 3 15 -15 79 -13 70 3
-6 10 -4 10 7 0 15 -15 99 -18 99 -4 0 5 7 11 14 14 10 4 13 1 10 -8 -7 -18
117 -20 128 -2 6 9 8 9 8 0 0 -7 9 -13 20 -13 14 0 18 5 13 17 -4 11 -3 14 5
9 7 -4 12 -1 12 8 0 9 -5 16 -12 16 -9 0 -9 3 0 12 7 7 12 18 12 26 0 12 -3
12 -16 2 -12 -11 -15 -11 -12 1 2 8 9 19 17 25 10 8 12 21 7 47 -7 38 -20 48
-30 22 -3 -8 -12 -12 -20 -9 -11 4 -14 -1 -13 -15 1 -13 6 -20 14 -17 7 3 15
0 19 -6 4 -7 3 -8 -4 -4 -7 4 -12 2 -12 -5 0 -9 -3 -9 -14 0 -7 6 -22 9 -32 5
-11 -3 -15 -2 -8 3 6 4 16 17 21 28 14 25 -12 48 -39 34 -10 -6 -19 -5 -23 1
-3 5 -11 10 -16 10 -6 0 -7 -4 -4 -10 3 -5 1 -10 -4 -10 -15 0 -14 16 3 33 9
9 11 19 5 28 -7 12 -9 12 -9 -1 -1 -8 -6 -4 -12 10 -6 14 -10 29 -9 33 1 5
-11 7 -25 5 -17 -2 -29 2 -32 11 -3 8 0 11 7 7 17 -11 13 8 -6 26 -30 28 -42
46 -36 52 4 3 -1 6 -10 6 -9 0 -17 -5 -17 -11 0 -5 -5 -7 -10 -4 -8 5 -7 11 1
21 6 7 15 12 19 9 4 -3 14 3 21 12 12 14 12 15 1 9 -12 -7 -12 -4 -2 15 16 30
24 39 18 19 -3 -8 -1 -23 3 -32 6 -10 5 -19 -2 -24 -8 -4 -7 -9 2 -15 22 -14
33 -10 19 6 -10 12 -10 15 3 15 9 0 19 5 23 11 4 8 -1 9 -16 4 -14 -5 -20 -3
-16 3 8 14 -12 58 -27 60 -32 3 -51 10 -61 23 -12 16 -46 14 -46 -2 0 -6 8 -9
18 -7 9 2 22 0 27 -5 6 -4 18 -13 28 -20 24 -17 12 -50 -14 -42 -21 7 -27 -11
-6 -18 6 -2 8 -8 4 -13 -4 -5 -12 -2 -16 5 -5 7 -15 11 -22 9 -10 -3 -5 -12
14 -31 16 -14 35 -23 42 -21 8 4 20 -7 30 -25 9 -18 11 -31 5 -31 -5 0 -10 6
-10 14 0 8 -5 18 -12 22 -7 4 -8 3 -4 -4 10 -16 -7 -15 -22 0 -10 10 -17 10
-31 1 -14 -8 -21 -9 -30 0 -19 19 -19 3 0 -28 11 -16 19 -24 19 -17 0 6 5 12
10 12 6 0 10 -7 10 -15 0 -8 -9 -15 -20 -15 -12 0 -20 7 -20 17 0 15 -2 14
-15 -3 -8 -10 -15 -14 -15 -7 0 6 5 15 10 18 7 4 7 13 0 26 -6 10 -8 19 -4 19
3 0 1 6 -5 13 -13 16 -5 27 21 27 11 0 16 5 13 10 -4 6 -11 8 -16 5 -5 -3 -6
1 -3 10 4 9 9 13 12 10 3 -3 16 5 29 17 19 18 26 20 32 9 6 -9 11 -10 15 -2 4
6 0 13 -8 16 -9 3 -22 7 -30 9 -8 3 -16 -4 -19 -16 -5 -16 -12 -19 -31 -16
-21 4 -24 3 -15 -8 16 -20 6 -17 -19 5 -25 21 -29 36 -7 27 13 -4 14 -2 5 14
-10 18 -13 19 -26 5 -19 -19 -19 -19 -35 2 -13 15 -11 16 11 10 24 -6 24 -6
-4 17 -20 15 -27 28 -23 39 4 12 1 17 -9 17 -9 0 -29 9 -44 20 -30 21 -62 18
-53 -6 3 -8 0 -14 -6 -14 -6 0 -11 9 -11 19 0 10 -6 21 -13 24 -10 4 -14 -4
-13 -26 1 -18 6 -31 12 -30 7 1 10 -6 7 -18 -6 -20 -6 -20 -16 -3 -16 29 -34
44 -42 36 -5 -4 -1 4 8 17 19 29 12 51 -14 44 -13 -4 -19 0 -19 12 0 12 6 16
20 12 11 -3 23 -1 26 5 4 5 -7 8 -27 6 -19 -2 -34 -8 -34 -15 0 -19 -14 -26
-28 -15 -8 7 -18 8 -22 4 -5 -4 -5 -1 -1 6 4 6 15 12 25 12 26 0 49 124 26
146 -19 19 -20 50 -1 57 8 3 18 34 25 74 7 37 14 83 17 101 l6 32 -89 0 c-86
0 -90 -1 -117 -29 l-29 -30 -36 29 c-33 26 -45 29 -147 35 l-110 7 26 -109 27
-108 -28 -3 c-40 -4 -37 -26 11 -70 30 -27 44 -51 54 -90 l14 -52 -156 2 -157
3 -3 74 c-2 55 1 78 13 91 8 9 12 20 8 23 -3 4 18 7 47 7 101 0 45 11 -134 26
-75 6 -80 8 -120 48 -46 46 -92 64 -192 73 -43 4 -68 11 -71 20 -3 8 -1 125 6
261 8 185 14 250 25 260 7 8 75 26 150 40 126 25 171 42 110 42 -14 0 -23 4
-19 10 9 15 92 12 235 -7 125 -16 211 -12 165 8 -11 5 -135 26 -275 48 -207
32 -265 38 -305 31 -54 -10 -483 -164 -498 -179 -5 -5 -5 -111 0 -262 l8 -254
165 -5 c157 -5 165 -6 165 -25 0 -16 -8 -21 -36 -23 -30 -3 -37 0 -35 15 0 9
-7 19 -16 21 -12 2 -18 -3 -18 -16 0 -12 -9 -22 -22 -26 -13 -4 -149 -11 -303
-17 -154 -5 -297 -12 -317 -15 -49 -8 -66 -29 -75 -95 l-8 -54 -40 -2 c-22 -2
-195 8 -385 20 -233 16 -347 20 -352 13 -4 -5 -4 -23 -1 -40 4 -21 3 -27 -5
-22 -16 9 -15 59 0 74 8 8 8 15 2 21 -14 14 -143 16 -156 3 -7 -7 -39 -12 -71
-12 -45 0 -63 4 -73 18 -8 10 -13 12 -14 5 0 -7 -6 -13 -12 -13 -9 0 -13 18
-14 53 -1 34 1 43 5 27 l7 -25 199 -6 c861 -27 795 -30 776 38 -7 26 -7 31 5
26 8 -3 14 -1 14 5 0 6 -4 12 -9 14 -12 4 -17 327 -6 352 6 13 5 21 -3 24 -17
5 -17 323 0 340 6 6 8 15 4 19 -4 4 -11 1 -16 -7 -5 -8 -13 -11 -17 -6 -4 5
-2 11 5 13 6 3 12 16 12 29 0 18 5 24 23 24 12 0 35 7 51 15 16 9 30 14 31 13
1 -2 5 -19 8 -38 3 -19 3 -29 0 -22 -7 17 -23 15 -23 -3 0 -8 5 -15 11 -15 7
0 10 -53 10 -162 -1 -131 6 -442 12 -530 1 -16 13 -18 98 -18 53 0 144 3 202
7 l107 6 0 34 c0 18 5 33 10 33 6 0 10 7 10 15 0 17 -17 21 -22 5 -1 -6 -3 22
-2 62 0 40 -2 122 -5 182 -5 82 -3 110 7 113 12 5 17 33 6 33 -4 0 -13 -8 -20
-17 -8 -11 -13 -13 -14 -5 0 6 -5 12 -11 12 -6 0 -9 -6 -6 -14 3 -8 3 -16 -2
-18 -12 -5 0 -277 13 -274 6 2 8 1 4 -1 -5 -3 -5 -16 -2 -29 3 -13 2 -24 -4
-24 -19 0 -22 47 -27 415 -2 204 -1 356 4 339 4 -17 11 -36 15 -42 4 -7 2 -12
-3 -12 -7 0 -11 -56 -11 -165 0 -155 1 -165 19 -165 23 0 28 28 30 205 1 81 6
134 14 143 9 11 7 17 -6 27 -13 9 -16 23 -13 56 4 42 5 45 57 66 30 12 47 22
39 22 -8 0 -23 -4 -32 -9z m-58 -149 c0 -10 -26 -9 -36 2 -4 4 2 7 14 7 12 0
22 -4 22 -9z m-361 -420 c1 -151 -1 -272 -4 -269 -3 2 -6 129 -7 281 -1 152
-5 277 -9 277 -4 0 -6 8 -4 18 2 9 4 28 6 42 7 85 17 -117 18 -349z m-192 262
c-3 -10 -5 -2 -5 17 0 19 2 27 5 18 2 -10 2 -26 0 -35z m0 -156 c-2 -23 -3 -1
-3 48 0 50 1 68 3 42 2 -26 2 -67 0 -90z m490 -404 c1 -22 -1 -24 -8 -10 -6 9
-7 22 -4 27 9 14 10 13 12 -17z m-297 -50 c0 -32 -5 -28 -14 10 -4 19 -3 26 4
22 5 -3 10 -18 10 -32z m345 5 c6 -4 2 -8 -7 -8 -10 0 -18 7 -18 17 0 9 3 12
8 7 4 -5 12 -12 17 -16z m1330 -132 c3 -27 9 -56 12 -65 4 -11 3 -13 -4 -6 -9
9 -33 113 -33 139 1 25 18 -23 25 -68z m-1845 44 c0 -11 -4 -20 -10 -20 -5 0
-10 9 -10 20 0 11 5 20 10 20 6 0 10 -9 10 -20z m1914 -60 c4 -39 3 -57 -2
-45 -13 29 -23 130 -13 119 5 -5 12 -38 15 -74z m123 -27 c-2 -21 -4 -4 -4 37
0 41 2 58 4 38 2 -21 2 -55 0 -75z m124 32 c-5 -33 -9 -46 -10 -30 -1 36 11
114 16 100 1 -6 -1 -37 -6 -70z m-182 -2 c-1 -67 -2 -67 -10 -23 -11 63 -11
90 1 90 6 0 9 -28 9 -67z m124 5 c-8 -84 -13 -86 -13 -5 0 37 4 67 9 67 5 0 7
-28 4 -62z m-2110 -3 c-3 -9 -8 -14 -10 -11 -3 3 -2 9 2 15 9 16 15 13 8 -4z
m1185 -16 c-2 -6 -8 -10 -13 -10 -5 0 -11 4 -13 10 -2 6 4 11 13 11 9 0 15 -5
13 -11z m117 -19 c10 -11 14 -20 9 -20 -5 0 -15 9 -22 20 -7 11 -11 20 -9 20
2 0 12 -9 22 -20z m-225 -5 c0 -10 -10 -15 -30 -15 -36 0 -38 7 -7 20 32 13
37 12 37 -5z m53 -22 c-7 -2 -21 -2 -30 0 -10 3 -4 5 12 5 17 0 24 -2 18 -5z
m-1873 -95 c0 -23 -3 -29 -9 -19 -8 12 -4 51 5 51 2 0 4 -15 4 -32z m390 -32
c8 -2 -13 -4 -48 -5 -35 0 -61 3 -58 7 4 7 70 6 106 -2z m2370 -30 c0 -3 -4
-8 -10 -11 -5 -3 -10 -1 -10 4 0 6 5 11 10 11 6 0 10 -2 10 -4z m-739 -58 c11
-21 11 -22 -4 -9 -10 7 -17 17 -17 22 0 15 9 10 21 -13z m267 -39 c-20 -13
-38 -11 -38 5 0 9 8 12 26 8 19 -3 22 -7 12 -13z m149 -51 c-3 -8 -6 -5 -6 6
-1 11 2 17 5 13 3 -3 4 -12 1 -19z m673 0 c0 -4 -5 -8 -11 -8 -5 0 -7 -4 -4
-10 3 -5 2 -10 -3 -10 -14 0 -21 11 -16 24 5 14 34 17 34 4z m-150 -8 c-8 -5
-16 -14 -16 -20 -1 -5 -2 -14 -3 -19 -1 -10 -51 -10 -51 0 0 4 7 10 16 13 8 3
12 10 9 16 -3 5 0 7 8 4 8 -3 18 -1 22 5 3 6 12 11 18 11 7 0 6 -4 -3 -10z
m186 -10 c8 0 14 -7 14 -15 0 -8 -4 -15 -10 -15 -5 0 -10 5 -10 11 0 6 -7 9
-15 5 -9 -3 -15 0 -15 8 0 17 14 30 18 17 2 -6 10 -11 18 -11z m-285 -7 c13
-16 12 -17 -3 -4 -17 13 -22 21 -14 21 2 0 10 -8 17 -17z m239 -24 c0 -5 14
-9 30 -9 17 0 30 -5 30 -11 0 -7 -10 -9 -25 -7 -13 3 -22 2 -20 -3 3 -4 1 -10
-5 -14 -5 -3 -10 3 -10 13 0 20 -25 36 -41 27 -5 -4 -6 0 -3 8 6 16 44 12 44
-4z m-245 1 c8 -13 -5 -13 -25 0 -13 8 -13 10 2 10 9 0 20 -4 23 -10z m-55
-10 c0 -5 -5 -10 -11 -10 -5 0 -7 5 -4 10 3 6 8 10 11 10 2 0 4 -4 4 -10z
m220 -13 c8 2 5 -2 -8 -10 -12 -7 -20 -16 -17 -19 3 -3 -3 -11 -12 -19 -16
-13 -17 -12 -4 4 11 14 11 17 0 17 -10 0 -10 3 -2 11 6 6 9 19 6 28 -4 15 -3
15 9 0 7 -9 20 -14 28 -12z m-107 -14 c-3 -6 -11 -14 -18 -17 -10 -3 -12 0 -8
12 6 15 5 15 -10 3 -15 -12 -17 -12 -12 1 4 9 17 15 29 14 14 0 22 -6 19 -13z
m161 -7 c-3 -9 -10 -13 -16 -10 -5 3 -4 12 3 20 15 18 22 13 13 -10z m-114 4
c0 -5 -4 -10 -10 -10 -5 0 -10 5 -10 10 0 6 5 10 10 10 6 0 10 -4 10 -10z m70
-15 c-7 -9 -15 -13 -17 -11 -7 7 7 26 19 26 6 0 6 -6 -2 -15z m105 -4 c-3 -6
-11 -11 -17 -11 -6 0 -6 6 2 15 14 17 26 13 15 -4z m53 -17 c-4 -3 -12 5 -18
18 -12 22 -12 22 6 6 10 -10 15 -20 12 -24z m-333 7 c3 -5 0 -13 -6 -17 -7 -4
-9 -3 -5 4 3 5 0 13 -6 15 -9 4 -10 6 -1 6 6 1 14 -3 18 -8z m60 -11 c3 -6 -1
-7 -9 -4 -18 7 -21 14 -7 14 6 0 13 -4 16 -10z m325 -26 c0 0 -9 -9 -19 -18
-19 -17 -20 -17 -30 3 -10 17 -9 20 5 14 13 -5 15 -2 9 16 -7 22 -6 22 14 4
12 -9 21 -18 21 -19z m-229 17 c-11 -7 -11 -12 0 -32 16 -28 20 -61 7 -53 -5
3 -7 12 -4 20 3 8 -1 17 -9 20 -8 4 -15 12 -15 20 0 8 -6 14 -12 15 -7 0 -4 4
7 9 26 11 44 12 26 1z m76 3 c-3 -3 -12 -4 -19 -1 -8 3 -5 6 6 6 11 1 17 -2
13 -5z m43 -22 c0 -10 -6 -19 -12 -20 -7 -1 -27 -4 -44 -8 -22 -4 -34 -1 -45
12 -13 16 -12 17 16 10 51 -13 66 -10 59 9 -4 9 0 15 10 15 9 0 16 -8 16 -18z
m-325 -22 c-3 -5 -12 -10 -18 -10 -7 0 -6 4 3 10 19 12 23 12 15 0z m365 6 c0
-11 -19 -15 -25 -6 -3 5 1 10 9 10 9 0 16 -2 16 -4z m88 -10 c-7 -8 -16 -12
-21 -9 -11 7 2 23 19 23 12 0 12 -2 2 -14z m-315 -11 c-3 -9 -8 -14 -10 -11
-3 3 -2 9 2 15 9 16 15 13 8 -4z m37 5 c0 -5 -2 -10 -4 -10 -3 0 -8 5 -11 10
-3 6 -1 10 4 10 6 0 11 -4 11 -10z m-225 -10 c3 -5 1 -10 -4 -10 -6 0 -11 5
-11 10 0 6 2 10 4 10 3 0 8 -4 11 -10z m345 -4 c0 -11 -19 -15 -25 -6 -3 5 1
10 9 10 9 0 16 -2 16 -4z m71 -18 c0 -13 2 -34 5 -48 3 -18 2 -21 -5 -10 -5 8
-7 18 -5 22 3 4 0 8 -6 8 -7 0 -10 7 -7 15 4 8 2 17 -3 20 -6 4 -10 1 -10 -4
0 -6 -4 -11 -10 -11 -5 0 -7 7 -4 15 10 24 44 19 45 -7z m-127 -23 c-9 -14
-20 -25 -25 -25 -5 0 1 11 13 25 12 14 23 25 25 25 2 0 -4 -11 -13 -25z m196
15 c0 -5 -5 -10 -11 -10 -5 0 -7 5 -4 10 3 6 8 10 11 10 2 0 4 -4 4 -10z
m-640 -10 c0 -5 -4 -10 -10 -10 -5 0 -10 5 -10 10 0 6 5 10 10 10 6 0 10 -4
10 -10z m22 -26 c-9 -16 -10 -14 -9 8 1 15 6 23 11 18 4 -4 4 -16 -2 -26z m76
11 c-3 -3 -9 2 -12 12 -6 14 -5 15 5 6 7 -7 10 -15 7 -18z m98 -2 c-10 -10
-19 5 -10 18 6 11 8 11 12 0 2 -7 1 -15 -2 -18z m154 7 c0 -5 -2 -10 -4 -10
-3 0 -8 5 -11 10 -3 6 -1 10 4 10 6 0 11 -4 11 -10z m290 -10 c0 -5 -5 -10
-11 -10 -5 0 -7 5 -4 10 3 6 8 10 11 10 2 0 4 -4 4 -10z m141 -23 c8 -13 13
-16 18 -8 6 9 11 8 21 -4 11 -13 10 -14 -5 -9 -14 6 -16 3 -10 -14 7 -25 -1
-27 -44 -9 l-32 14 23 15 c23 16 23 16 3 32 -17 13 -17 15 -2 10 10 -4 22 -15
28 -27z m-1151 19 c0 -2 -7 -6 -15 -10 -8 -3 -15 -1 -15 4 0 6 7 10 15 10 8 0
15 -2 15 -4z m914 -21 c-4 -8 -11 -15 -16 -15 -6 0 -5 6 2 15 7 8 14 15 16 15
2 0 1 -7 -2 -15z m-449 -5 c3 -5 1 -10 -4 -10 -6 0 -11 5 -11 10 0 6 2 10 4
10 3 0 8 -4 11 -10z m95 -4 c0 -2 -7 -7 -16 -10 -8 -3 -12 -2 -9 4 6 10 25 14
25 6z m285 -14 c-3 -3 -11 0 -18 7 -9 10 -8 11 6 5 10 -3 15 -9 12 -12z m132
-6 c-3 -8 1 -17 10 -20 9 -4 14 -9 11 -11 -3 -3 -12 -3 -21 1 -16 6 -20 44 -4
44 5 0 7 -6 4 -14z m-327 -4 c0 -4 -10 -13 -22 -21 -23 -14 -23 -14 -4 8 20
22 26 25 26 13z m400 1 c-1 -18 -18 -35 -24 -24 -4 6 -4 16 -1 21 7 12 25 13
25 3z m30 -3 c0 -5 -5 -10 -11 -10 -5 0 -7 5 -4 10 3 6 8 10 11 10 2 0 4 -4 4
-10z m-650 -10 c0 -5 -2 -10 -4 -10 -3 0 -8 5 -11 10 -3 6 -1 10 4 10 6 0 11
-4 11 -10z m400 -11 c0 -6 -4 -7 -10 -4 -5 3 -10 11 -10 16 0 6 5 7 10 4 6 -3
10 -11 10 -16z m77 15 c-3 -3 -12 -4 -19 -1 -8 3 -5 6 6 6 11 1 17 -2 13 -5z
m339 -6 c4 -7 4 -10 -1 -6 -4 4 -14 3 -22 -4 -11 -8 -12 -7 -7 6 7 19 20 21
30 4z m-1109 -4 c-3 -3 -12 -4 -19 -1 -8 3 -5 6 6 6 11 1 17 -2 13 -5z m983
-19 c20 -11 21 -14 7 -15 -10 0 -25 7 -33 15 -19 19 -7 19 26 0z m80 1 c0 -2
-7 -6 -15 -10 -8 -3 -15 -1 -15 4 0 6 7 10 15 10 8 0 15 -2 15 -4z m65 -6 c3
-5 1 -10 -4 -10 -6 0 -11 5 -11 10 0 6 2 10 4 10 3 0 8 -4 11 -10z m-1028 -6
c-3 -3 -12 -4 -19 -1 -8 3 -5 6 6 6 11 1 17 -2 13 -5z m173 2 c0 -3 -4 -8 -10
-11 -5 -3 -10 -1 -10 4 0 6 5 11 10 11 6 0 10 -2 10 -4z m150 -11 c7 -9 8 -15
2 -15 -5 0 -12 7 -16 15 -3 8 -4 15 -2 15 2 0 9 -7 16 -15z m35 -3 c-3 -3 -11
0 -18 7 -9 10 -8 11 6 5 10 -3 15 -9 12 -12z m300 8 c3 -5 1 -10 -4 -10 -6 0
-11 5 -11 10 0 6 2 10 4 10 3 0 8 -4 11 -10z m185 0 c-8 -5 -19 -10 -25 -10
-5 0 -3 5 5 10 8 5 20 10 25 10 6 0 3 -5 -5 -10z m-1205 -10 c3 -5 1 -10 -4
-10 -6 0 -11 5 -11 10 0 6 2 10 4 10 3 0 8 -4 11 -10z m280 -8 c-3 -3 -11 0
-18 7 -9 10 -8 11 6 5 10 -3 15 -9 12 -12z m495 -2 c0 -5 -9 -6 -20 -3 -11 3
-17 9 -15 14 7 10 35 1 35 -11z m345 11 c3 -5 2 -12 -3 -15 -5 -3 -9 1 -9 9 0
17 3 19 12 6z m-710 -19 c-3 -3 -11 0 -18 7 -9 10 -8 11 6 5 10 -3 15 -9 12
-12z m675 8 c0 -5 -2 -10 -4 -10 -3 0 -8 5 -11 10 -3 6 -1 10 4 10 6 0 11 -4
11 -10z m210 0 c0 -5 -5 -10 -11 -10 -5 0 -7 5 -4 10 3 6 8 10 11 10 2 0 4 -4
4 -10z m42 -13 c-7 -8 -10 -17 -7 -21 3 -3 0 -2 -6 3 -8 7 -8 13 2 24 17 18
26 13 11 -6z m43 13 c3 -6 -1 -7 -9 -4 -18 7 -21 14 -7 14 6 0 13 -4 16 -10z
m-1148 -21 c2 -17 -1 -18 -12 -9 -8 7 -12 16 -9 21 9 16 20 10 21 -12z m313
10 c0 -7 -26 -19 -41 -19 -5 0 -9 6 -9 13 0 6 11 12 25 12 14 0 25 -3 25 -6z
m823 -24 c-5 -13 -23 -22 -23 -11 0 15 14 35 21 31 4 -3 6 -12 2 -20z m101 1
c-3 -9 -10 -13 -15 -10 -5 3 -3 11 4 19 15 16 19 13 11 -9z m-680 -25 c-5 -6
-34 20 -34 30 0 5 8 1 18 -8 10 -10 17 -20 16 -22z m476 35 c0 -3 -4 -8 -10
-11 -5 -3 -10 -1 -10 4 0 6 5 11 10 11 6 0 10 -2 10 -4z m-276 -22 c3 -8 2
-12 -4 -9 -6 3 -10 10 -10 16 0 14 7 11 14 -7z m576 6 c0 -5 -4 -10 -10 -10
-5 0 -10 5 -10 10 0 6 5 10 10 10 6 0 10 -4 10 -10z m-1904 -12 c4 -7 4 -10
-1 -6 -4 4 -15 2 -24 -5 -14 -11 -14 -10 -2 6 16 20 18 21 27 5z m1050 -19 c4
-8 1 -8 -14 0 -12 6 -24 16 -28 22 -4 8 -1 8 14 0 12 -6 24 -16 28 -22z m224
19 c0 -10 -17 -10 -24 0 -3 5 1 9 9 9 8 0 15 -4 15 -9z m230 8 c0 -3 -4 -8
-10 -11 -5 -3 -10 -1 -10 4 0 6 5 11 10 11 6 0 10 -2 10 -4z m130 -6 c-20 -13
-33 -13 -25 0 3 6 14 10 23 10 15 0 15 -2 2 -10z m140 0 c0 -5 -2 -10 -4 -10
-3 0 -8 5 -11 10 -3 6 -1 10 4 10 6 0 11 -4 11 -10z m-1650 -21 c0 -6 -4 -7
-10 -4 -5 3 -10 11 -10 16 0 6 5 7 10 4 6 -3 10 -11 10 -16z m487 -1 c-3 -8
-6 -5 -6 6 -1 11 2 17 5 13 3 -3 4 -12 1 -19z m467 6 c3 -8 2 -12 -4 -9 -6 3
-10 10 -10 16 0 14 7 11 14 -7z m319 -9 c-3 -9 -8 -14 -10 -11 -3 3 -2 9 2 15
9 16 15 13 8 -4z m351 4 c-7 -12 -52 -16 -48 -5 2 6 15 11 28 11 13 0 22 -3
20 -6z m-1078 -19 c0 -12 -4 -16 -9 -11 -5 5 -6 14 -3 20 10 15 12 14 12 -9z
m819 11 c3 -5 1 -12 -5 -16 -5 -3 -10 1 -10 9 0 18 6 21 15 7z m109 0 c3 -5
-1 -11 -9 -15 -9 -3 -15 0 -15 9 0 16 16 20 24 6z m224 -6 c12 2 24 0 27 -5 3
-5 -4 -7 -15 -5 -11 2 -20 -1 -20 -7 0 -6 -8 -4 -18 5 -14 13 -21 14 -30 5 -8
-8 -12 -9 -12 -1 0 15 22 22 36 12 6 -5 20 -7 32 -4z m-1288 -10 c7 -8 9 -15
6 -15 -4 0 -14 7 -22 15 -9 8 -11 15 -6 15 5 0 15 -7 22 -15z m320 5 c0 -5 -5
-10 -11 -10 -5 0 -7 5 -4 10 3 6 8 10 11 10 2 0 4 -4 4 -10z m27 -12 c-3 -8
-6 -5 -6 6 -1 11 2 17 5 13 3 -3 4 -12 1 -19z m236 1 c-4 -15 -8 -17 -14 -8
-6 11 4 28 18 29 0 0 -1 -9 -4 -21z m237 6 c-7 -9 -15 -13 -19 -10 -3 3 1 10
9 15 21 14 24 12 10 -5z m-770 1 c0 -2 -7 -7 -16 -10 -8 -3 -12 -2 -9 4 6 10
25 14 25 6z m862 -18 c-7 -7 -12 -8 -12 -2 0 14 12 26 19 19 2 -3 -1 -11 -7
-17z m188 16 c0 -3 -7 -12 -15 -21 -20 -19 -32 -9 -15 12 12 15 30 20 30 9z
m-546 -43 c-5 -6 -34 20 -34 30 0 5 8 1 18 -8 10 -10 17 -20 16 -22z m-724 25
c0 -2 -7 -7 -16 -10 -8 -3 -12 -2 -9 4 6 10 25 14 25 6z m875 -6 c-3 -5 -11
-10 -16 -10 -6 0 -7 5 -4 10 3 6 11 10 16 10 6 0 7 -4 4 -10z m148 -13 c-5 -8
-8 -7 -11 1 -3 10 -7 10 -18 1 -9 -7 -14 -8 -14 -1 0 6 6 12 13 15 18 6 38 -4
30 -16z m282 13 c3 -6 -1 -7 -9 -4 -18 7 -21 14 -7 14 6 0 13 -4 16 -10z m92
-5 c0 -8 -4 -12 -9 -9 -4 3 -8 9 -8 15 0 5 4 9 8 9 5 0 9 -7 9 -15z m-597 -39
c-16 -20 -27 -20 -27 -2 0 8 6 12 14 9 7 -3 13 0 13 6 0 6 -4 11 -10 11 -5 0
-10 5 -10 12 0 8 6 6 17 -4 13 -14 14 -20 3 -32z m420 25 c0 -4 -6 -8 -14 -8
-8 0 -12 6 -9 14 5 13 23 9 23 -6z m290 -1 c9 -16 8 -18 -5 -14 -8 4 -15 12
-15 20 0 20 7 17 20 -6z m-1683 4 c-3 -3 -12 -4 -19 -1 -8 3 -5 6 6 6 11 1 17
-2 13 -5z m1099 -19 c1 -9 -4 -11 -14 -7 -10 4 -12 7 -4 10 7 2 9 9 5 15 -3 7
-2 8 2 4 5 -4 10 -14 11 -22z m372 4 c3 -8 1 -11 -3 -6 -5 4 -18 -1 -29 -10
-21 -18 -21 -18 -3 3 9 11 14 24 10 29 -5 4 -2 6 6 3 8 -2 17 -11 19 -19z m76
5 c5 -14 4 -15 -9 -4 -17 14 -19 20 -6 20 5 0 12 -7 15 -16z m-1657 0 c-3 -3
-12 -4 -19 -1 -8 3 -5 6 6 6 11 1 17 -2 13 -5z m610 -9 c0 -8 -4 -12 -9 -9 -5
3 -6 10 -3 15 9 13 12 11 12 -6z m43 5 c0 -5 -4 -10 -10 -10 -5 0 -10 5 -10
10 0 6 5 10 10 10 6 0 10 -4 10 -10z m600 6 c0 -2 -7 -7 -16 -10 -8 -3 -12 -2
-9 4 6 10 25 14 25 6z m154 -10 c-3 -8 -13 -17 -22 -21 -13 -5 -13 -2 3 15 21
24 26 25 19 6z m-1044 -16 c6 -11 7 -20 2 -20 -6 0 -12 9 -15 20 -3 11 -3 20
-1 20 2 0 8 -9 14 -20z m770 10 c0 -5 -5 -10 -11 -10 -5 0 -7 5 -4 10 3 6 8
10 11 10 2 0 4 -4 4 -10z m185 0 c3 -5 2 -10 -4 -10 -5 0 -13 5 -16 10 -3 6
-2 10 4 10 5 0 13 -4 16 -10z m160 -10 c10 -11 16 -20 13 -20 -3 0 -13 9 -23
20 -10 11 -16 20 -13 20 3 0 13 -9 23 -20z m280 10 c3 -5 1 -10 -4 -10 -6 0
-11 5 -11 10 0 6 2 10 4 10 3 0 8 -4 11 -10z m-795 -4 c0 -3 -4 -8 -10 -11 -5
-3 -10 -1 -10 4 0 6 5 11 10 11 6 0 10 -2 10 -4z m773 -10 c4 -10 1 -13 -8 -9
-8 3 -12 9 -9 14 7 12 11 11 17 -5z m-838 -6 c3 -5 1 -10 -4 -10 -6 0 -11 5
-11 10 0 6 2 10 4 10 3 0 8 -4 11 -10z m705 6 c0 -2 -7 -7 -16 -10 -8 -3 -12
-2 -9 4 6 10 25 14 25 6z"/>
<path d="M4230 291 c0 -5 7 -15 17 -22 15 -13 15 -12 4 9 -12 23 -21 28 -21
13z"/>
<path d="M2588 1733 c7 -3 16 -2 19 1 4 3 -2 6 -13 5 -11 0 -14 -3 -6 -6z"/>
<path d="M2265 1630 c-3 -6 1 -7 9 -4 18 7 21 14 7 14 -6 0 -13 -4 -16 -10z"/>
<path d="M3137 1592 c-23 -5 -12 -22 15 -22 16 0 18 -3 9 -13 -8 -10 -5 -45 9
-133 12 -65 24 -133 29 -151 5 -17 6 -34 3 -37 -3 -3 0 -6 6 -6 7 0 30 -16 52
-36 37 -34 44 -36 90 -32 28 3 50 1 50 -4 0 -4 33 -6 73 -3 48 3 64 2 47 -4
-16 -6 38 -9 158 -10 114 -1 182 -5 182 -11 0 -6 50 -10 133 -9 l132 1 -90 14
c-49 8 -96 16 -103 19 -7 2 -24 0 -38 -5 -17 -7 -31 -7 -42 0 -10 5 -12 10 -4
10 22 0 13 24 -20 53 -18 16 -27 26 -20 22 15 -7 15 -7 1 75 -5 35 -14 67 -19
70 -5 3 -12 18 -16 34 -5 22 -4 27 6 21 9 -5 11 -4 6 4 -4 6 -12 9 -17 6 -5
-4 -9 3 -9 14 0 27 -8 30 -82 38 -65 6 -108 26 -108 48 0 22 -82 55 -135 55
l-48 0 23 -25 c21 -22 21 -25 6 -31 -22 -8 -206 16 -206 27 0 5 -11 9 -24 9
-13 0 -26 4 -28 8 -1 4 -11 6 -21 4z m387 -61 c-2 -3 -12 3 -22 13 -16 17 -16
18 5 5 12 -7 20 -15 17 -18z m-27 -7 c-3 -3 -12 -4 -19 -1 -8 3 -5 6 6 6 11 1
17 -2 13 -5z m233 -120 c7 -19 10 -48 8 -64 -2 -16 -1 -27 3 -25 9 6 19 -20
19 -46 0 -17 -5 -19 -37 -13 -21 3 -42 10 -48 15 -5 5 -18 9 -30 8 -11 0 -14
-3 -7 -6 16 -6 6 -23 -14 -23 -8 0 -12 4 -9 10 3 6 -9 9 -32 7 l-38 -2 -9 68
c-6 47 -5 72 2 79 9 9 62 18 164 27 11 1 21 -11 28 -35z m-280 -63 c0 -42 -3
-48 -17 -45 -13 4 -18 14 -17 37 1 18 -3 38 -9 45 -7 9 -3 12 17 12 25 0 26
-3 26 -49z m334 -120 c3 -5 -16 -6 -42 -4 -69 7 -74 11 -15 12 28 1 54 -3 57
-8z m-156 -68 c-16 -2 -40 -2 -55 0 -16 2 -3 4 27 4 30 0 43 -2 28 -4z"/>
<path d="M3034 1536 c-7 -19 -41 -21 -46 -4 -3 9 -18 6 -54 -9 l-49 -22 -3
-102 c-3 -114 -1 -119 60 -119 20 0 40 -4 43 -10 3 -5 14 -10 25 -10 11 0 20
-10 24 -25 4 -14 11 -25 16 -25 6 0 10 -11 10 -24 0 -13 7 -27 16 -30 58 -22
49 26 -11 60 -33 18 -24 39 18 42 35 3 37 5 37 36 0 18 -5 70 -11 115 -8 57
-8 85 -1 94 16 19 -1 38 -37 43 -22 4 -33 1 -37 -10z m36 -6 c0 -5 -4 -10 -10
-10 -5 0 -10 5 -10 10 0 6 5 10 10 10 6 0 10 -4 10 -10z"/>
<path d="M2734 1492 c-8 -5 -9 -25 -3 -62 4 -30 8 -63 8 -73 1 -25 46 -67 71
-67 19 0 20 6 20 105 l0 105 -42 0 c-24 0 -48 -4 -54 -8z"/>
<path d="M2885 1230 l-40 -7 45 -1 c25 -1 52 3 60 8 12 8 11 9 -5 8 -11 0 -38
-4 -60 -8z"/>
<path d="M4469 1166 c-2 -2 -33 -7 -69 -10 -95 -8 -191 -24 -199 -31 -3 -4 35
-4 84 0 50 4 110 9 135 11 25 1 49 3 53 3 5 1 6 5 2 10 -3 5 5 12 17 14 21 4
21 4 2 6 -11 0 -23 -1 -25 -3z"/>
<path d="M2858 1109 c-23 -13 -25 -84 -3 -93 20 -7 27 12 23 62 -3 36 -5 39
-20 31z"/>
<path d="M3966 1094 c-4 -10 -1 -14 6 -12 15 5 23 28 10 28 -5 0 -13 -7 -16
-16z"/>
<path d="M4190 1085 c0 -8 6 -15 14 -15 7 0 19 7 26 15 11 13 8 15 -14 15 -16
0 -26 -5 -26 -15z"/>
<path d="M4338 1093 c6 -2 18 -2 25 0 6 3 1 5 -13 5 -14 0 -19 -2 -12 -5z"/>
<path d="M4403 1093 c9 -2 25 -2 35 0 9 3 1 5 -18 5 -19 0 -27 -2 -17 -5z"/>
<path d="M4494 1083 c2 -10 13 -19 24 -21 17 -3 22 2 22 17 0 16 -6 21 -24 21
-17 0 -24 -5 -22 -17z"/>
<path d="M4338 1073 c6 -2 18 -2 25 0 6 3 1 5 -13 5 -14 0 -19 -2 -12 -5z"/>
<path d="M313 1062 c-61 -2 -73 -6 -72 -20 0 -10 3 -12 6 -4 7 17 23 15 23 -3
0 -25 122 -17 126 7 3 23 2 24 -83 20z"/>
<path d="M417 1063 c-12 -12 -7 -22 8 -17 9 4 15 0 15 -9 0 -17 -38 -26 -114
-28 -28 -1 -40 -4 -26 -6 40 -8 200 9 170 18 -21 6 -18 7 16 8 37 1 54 12 54
37 0 7 -116 4 -123 -3z"/>
<path d="M3870 1060 c0 -5 9 -10 20 -10 11 0 20 5 20 10 0 6 -9 10 -20 10 -11
0 -20 -4 -20 -10z"/>
<path d="M3930 1060 c0 -5 18 -10 40 -10 22 0 40 5 40 10 0 6 -18 10 -40 10
-22 0 -40 -4 -40 -10z"/>
<path d="M4042 1059 c5 -16 78 -25 78 -10 0 6 -8 11 -17 11 -10 0 -29 3 -42 7
-18 4 -23 2 -19 -8z"/>
<path d="M103 1053 c-40 -2 -73 -8 -73 -13 0 -5 7 -7 15 -4 10 4 15 0 15 -12
0 -17 7 -19 80 -16 77 3 80 4 80 28 0 19 -5 24 -22 22 -13 -1 -56 -4 -95 -5z"/>
<path d="M4150 1050 c0 -5 23 -10 50 -10 28 0 50 5 50 10 0 6 -22 10 -50 10
-27 0 -50 -4 -50 -10z"/>
<path d="M4280 1042 c0 -9 6 -12 16 -8 9 3 20 6 25 6 5 0 9 4 9 10 0 5 -11 9
-25 8 -14 -1 -25 -9 -25 -16z"/>
<path d="M2 1025 c0 -16 2 -22 5 -12 2 9 2 23 0 30 -3 6 -5 -1 -5 -18z"/>
<path d="M3883 1034 c10 -10 657 -52 657 -43 0 7 -97 15 -360 29 -107 5 -220
13 -250 16 -30 3 -51 2 -47 -2z"/>
<path d="M548 1023 c7 -3 16 -2 19 1 4 3 -2 6 -13 5 -11 0 -14 -3 -6 -6z"/>
<path d="M2400 990 c0 -11 4 -20 9 -20 13 0 32 26 24 33 -13 14 -33 6 -33 -13z"/>
<path d="M60 990 l-65 -7 55 0 c30 -1 93 2 140 6 l85 8 -75 0 c-41 0 -104 -3
-140 -7z"/>
<path d="M1995 980 c4 -6 11 -8 16 -5 14 9 11 15 -7 15 -8 0 -12 -5 -9 -10z"/>
<path d="M2318 973 c6 -2 18 -2 25 0 6 3 1 5 -13 5 -14 0 -19 -2 -12 -5z"/>
<path d="M3818 823 c7 -3 16 -2 19 1 4 3 -2 6 -13 5 -11 0 -14 -3 -6 -6z"/>
<path d="M3857 798 c-19 -15 -35 -78 -19 -78 19 0 42 12 42 22 0 6 -7 8 -15 4
-10 -4 -15 1 -15 14 0 11 6 18 13 16 6 -1 8 -1 4 2 -4 2 -3 10 4 18 14 17 8
18 -14 2z"/>
<path d="M3130 767 c0 -43 2 -44 66 -52 49 -7 51 -6 49 16 -2 14 -8 23 -16 21
-20 -5 -59 7 -59 19 0 13 147 8 165 -6 21 -16 23 -49 3 -53 -11 -2 -18 3 -18
12 0 8 -5 18 -12 22 -7 4 -8 3 -4 -5 4 -6 2 -18 -4 -26 -11 -13 -4 -15 43 -15
l56 0 -11 31 c-16 46 -43 57 -155 65 l-103 7 0 -36z"/>
<path d="M3276 739 c3 -6 0 -16 -7 -21 -12 -8 -11 -9 1 -5 18 4 27 37 10 37
-6 0 -8 -5 -4 -11z"/>
<path d="M3245 680 c3 -5 13 -10 21 -10 8 0 14 5 14 10 0 6 -9 10 -21 10 -11
0 -17 -4 -14 -10z"/>
<path d="M3956 672 c-3 -5 -22 -9 -42 -10 -36 -1 -52 -8 -43 -16 7 -7 90 11
102 23 8 8 8 11 0 11 -7 0 -14 -4 -17 -8z"/>
<path d="M3975 649 c-18 -9 -18 -9 3 -5 25 5 28 -3 10 -24 -11 -12 -10 -12 7
0 11 8 21 15 23 16 1 1 -3 6 -10 11 -8 7 -21 7 -33 2z"/>
<path d="M4030 649 c0 -5 5 -7 10 -4 6 3 10 8 10 11 0 2 -4 4 -10 4 -5 0 -10
-5 -10 -11z"/>
<path d="M4010 609 c0 -5 5 -7 10 -4 6 3 10 8 10 11 0 2 -4 4 -10 4 -5 0 -10
-5 -10 -11z"/>
<path d="M4070 604 c0 -6 5 -15 11 -21 6 -6 8 -17 4 -23 -6 -9 -12 -6 -21 11
-13 24 -13 24 -11 2 1 -21 9 -27 30 -24 4 0 7 -5 7 -12 0 -8 7 -14 15 -14 19
0 19 -1 -6 44 -25 44 -29 50 -29 37z"/>
<path d="M4205 600 c-3 -6 1 -7 9 -4 18 7 21 14 7 14 -6 0 -13 -4 -16 -10z"/>
<path d="M4154 592 c-8 -5 -8 -15 -2 -32 5 -14 12 -20 16 -14 4 5 17 9 30 8
14 -1 27 7 34 20 9 17 8 19 -3 9 -16 -16 -69 -17 -69 -2 0 6 7 8 16 5 8 -3 12
-2 9 4 -7 12 -16 12 -31 2z"/>
<path d="M4110 583 c0 -6 5 -15 11 -19 6 -3 9 -19 7 -35 -3 -16 0 -29 5 -29 5
0 7 -7 3 -15 -3 -9 0 -15 9 -15 17 0 20 16 4 26 -6 3 -8 16 -5 28 3 12 -3 31
-14 46 -11 14 -20 20 -20 13z"/>
<path d="M4301 563 c-1 -7 -9 -13 -18 -14 -13 0 -11 -3 6 -10 29 -11 31 -10
20 16 -4 11 -8 14 -8 8z"/>
<path d="M4330 552 c0 -6 9 -16 20 -22 16 -9 20 -8 20 6 0 10 -3 14 -7 11 -3
-4 -12 -2 -20 4 -9 8 -13 8 -13 1z"/>
<path d="M4377 506 c-3 -8 -2 -18 4 -22 16 -9 22 2 11 21 -8 15 -10 16 -15 1z"/>
<path d="M4455 497 c-20 -19 -20 -19 13 -3 35 18 39 23 20 23 -7 0 -22 -9 -33
-20z"/>
<path d="M4320 499 c0 -5 5 -7 10 -4 6 3 10 8 10 11 0 2 -4 4 -10 4 -5 0 -10
-5 -10 -11z"/>
<path d="M4300 488 c0 -10 9 -22 21 -28 14 -8 18 -17 14 -28 -4 -9 -8 -21 -9
-27 -1 -5 -5 -15 -9 -21 -7 -12 0 -24 15 -24 4 0 8 8 8 18 0 14 2 15 10 2 15
-24 -17 -35 -41 -14 -26 24 -23 5 5 -30 18 -22 29 -27 46 -21 19 6 21 5 11
-13 -13 -25 -14 -32 -2 -32 5 0 13 9 16 21 5 14 10 17 18 10 8 -6 19 -4 32 5
12 9 16 18 10 22 -12 9 -15 72 -4 72 9 0 13 -22 10 -47 -1 -6 3 -14 9 -18 6
-4 7 1 3 11 -4 12 -3 15 5 10 7 -4 12 -2 12 3 0 15 33 14 48 -1 9 -9 12 -9 12
1 0 7 -9 15 -20 18 -11 3 -20 10 -20 16 0 5 -9 2 -20 -8 -18 -17 -20 -17 -14
-2 3 9 10 17 16 17 5 0 6 5 3 10 -9 15 4 12 21 -5 20 -19 34 -19 34 1 0 8 -4
13 -9 9 -5 -3 -12 -1 -16 5 -9 14 -45 12 -45 -2 0 -7 -10 2 -21 20 -12 17 -23
32 -26 32 -2 0 -1 -4 2 -10 14 -23 -8 -29 -25 -8 -22 26 -26 18 -8 -12 10 -16
10 -24 0 -40 -7 -12 -10 -26 -6 -33 3 -7 -4 -1 -15 13 -23 28 -25 36 -11 45 6
3 10 16 10 28 0 15 -3 18 -11 10 -8 -8 -18 -4 -35 15 -19 21 -23 23 -24 10z
m127 -79 c-13 -8 -15 -14 -7 -29 13 -24 13 -33 -1 -24 -8 4 -9 -1 -4 -17 7
-20 6 -22 -7 -12 -8 7 -19 9 -24 5 -5 -4 0 4 11 17 15 18 17 25 7 28 -10 4 -9
9 4 24 9 10 22 19 28 19 6 0 3 -5 -7 -11z m-57 -63 c0 -2 -7 -7 -16 -10 -8 -3
-12 -2 -9 4 6 10 25 14 25 6z"/>
<path d="M4466 472 c-2 -4 4 -8 15 -8 10 0 19 4 19 8 0 4 -6 8 -14 8 -8 0 -17
-4 -20 -8z"/>
<path d="M4510 461 c0 -5 7 -11 14 -14 10 -4 13 -1 9 9 -6 15 -23 19 -23 5z"/>
<path d="M4371 421 c-8 -6 -9 -11 -3 -15 6 -3 14 -1 17 5 9 14 2 20 -14 10z"/>
<path d="M4140 382 c0 -10 41 -24 49 -17 6 7 0 11 -26 19 -13 4 -23 3 -23 -2z"/>
<path d="M4485 349 c-4 -6 -5 -13 -2 -16 7 -7 27 6 27 18 0 12 -17 12 -25 -2z"/>
<path d="M4515 326 c-20 -14 -26 -16 -46 -16 -6 0 -8 -8 -4 -19 3 -10 -1 -24
-10 -31 -13 -11 -14 -10 -9 3 9 25 -7 43 -19 22 -8 -14 -11 -15 -18 -4 -8 12
-11 12 -18 -1 -7 -9 -6 -19 2 -29 7 -8 11 -24 9 -35 -3 -19 -1 -19 17 4 16 19
21 21 21 9 0 -16 18 -28 48 -35 8 -1 11 4 7 16 -3 10 0 22 6 26 7 4 9 3 5 -4
-3 -6 -2 -13 4 -17 5 -3 10 0 10 7 0 9 3 9 10 -2 8 -12 10 -11 10 6 0 23 -23
48 -33 37 -4 -3 -7 -1 -7 6 0 7 -4 10 -8 7 -5 -3 -9 1 -9 9 0 8 4 15 9 15 4 0
8 -4 8 -9 0 -11 31 -24 38 -16 3 3 -3 12 -14 20 -17 13 -17 14 -1 15 9 0 17 7
17 15 0 18 -1 18 -25 1z m-35 -85 c0 -6 -4 -13 -10 -16 -5 -3 -10 1 -10 9 0 9
5 16 10 16 6 0 10 -4 10 -9z"/>
</g>
</svg>
