<?xml version="1.0" standalone="no"?>
<!DOCTYPE svg PUBLIC "-//W3C//DTD SVG 20010904//EN"
 "http://www.w3.org/TR/2001/REC-SVG-20010904/DTD/svg10.dtd">
<svg version="1.0" xmlns="http://www.w3.org/2000/svg"
 width="1200.000000pt" height="741.000000pt" viewBox="0 0 1200.000000 741.000000"
 preserveAspectRatio="xMidYMid meet">

<g transform="translate(0.000000,741.000000) scale(0.100000,-0.100000)"
fill="#000000" stroke="none">
<path d="M7861 6238 c0 -13 4 -32 9 -43 7 -16 9 -13 9 17 1 20 -3 40 -9 43 -6
3 -10 -4 -9 -17z"/>
<path d="M5950 6108 c0 -8 7 -23 15 -34 15 -18 15 -18 13 10 -3 29 -28 50 -28
24z"/>
<path d="M5775 6055 c-9 -4 -320 -30 -655 -55 -74 -6 -218 -17 -320 -26 -102
-8 -243 -19 -315 -24 -71 -6 -213 -17 -315 -25 -102 -8 -250 -19 -330 -25
-232 -17 -312 -28 -338 -47 -22 -17 -63 -83 -131 -213 -16 -30 -48 -89 -70
-130 -23 -41 -78 -146 -122 -233 -44 -87 -85 -160 -92 -162 -6 -2 -29 -6 -49
-10 -21 -3 -50 -17 -65 -30 -28 -23 -28 -24 -29 -157 0 -86 -5 -141 -13 -156
-7 -13 -10 -35 -7 -48 7 -27 34 -31 96 -15 19 5 87 12 150 15 l115 6 -24 -20
c-21 -18 -22 -24 -13 -45 23 -49 100 -40 88 11 -7 26 10 36 36 22 12 -6 39 -2
80 12 67 22 167 38 258 40 188 5 550 -1 550 -10 0 -5 -9 -10 -19 -10 -28 0
-32 -23 -9 -58 31 -49 95 -38 82 14 -4 15 2 22 27 31 22 9 36 9 45 2 8 -7 30
-5 71 5 70 18 204 37 214 30 18 -11 114 -15 435 -21 395 -6 396 -6 432 75 19
42 107 305 119 357 3 11 8 29 13 40 4 11 42 126 84 255 42 129 100 304 127
389 56 167 56 191 3 211 -24 10 -88 12 -109 5z m-744 -145 c48 0 59 -3 59 -16
0 -15 -11 -16 -87 -11 -62 4 -100 1 -128 -9 -22 -7 -60 -14 -85 -14 -55 0 -67
-8 -70 -40 -4 -44 -1 -49 40 -60 42 -11 47 -19 29 -37 -16 -16 -3 -47 16 -39
8 3 22 9 30 12 24 10 18 -24 -7 -37 -32 -17 -178 -38 -268 -39 -84 0 -124 -14
-74 -25 16 -4 33 -8 38 -9 5 -1 8 -112 8 -246 -1 -274 0 -271 -68 -222 -65 48
-183 83 -261 80 -88 -4 -92 -23 -5 -25 39 -1 80 -8 97 -17 17 -9 37 -16 45
-16 11 -1 10 -4 -4 -15 -16 -12 -16 -15 -4 -15 8 0 36 -11 61 -24 25 -14 48
-22 51 -19 3 3 17 -9 31 -26 31 -36 63 -44 45 -11 -8 16 -8 20 4 20 8 0 21 -7
30 -15 29 -29 38 -5 10 26 -14 16 -14 20 -1 39 10 14 13 34 10 55 -3 18 -1 41
5 50 10 19 12 11 28 -120 6 -50 6 -51 -30 -70 -20 -11 -36 -25 -36 -32 0 -17
17 -17 27 0 4 8 23 17 42 21 40 7 71 32 71 55 1 13 3 13 15 -3 23 -30 18 -46
-15 -52 -16 -4 -35 -13 -41 -20 -6 -8 -20 -14 -30 -14 -11 0 -36 -18 -57 -39
-20 -22 -73 -62 -117 -91 -44 -28 -85 -55 -91 -61 -7 -5 -185 -11 -430 -13
-231 -3 -434 -8 -451 -12 -18 -3 -33 -4 -33 -1 0 3 30 36 66 73 l66 66 71 4
c112 7 230 24 252 38 23 14 64 -1 58 -21 -2 -6 1 -14 7 -18 12 -7 157 9 255
28 33 6 64 10 69 9 17 -5 46 10 46 23 0 8 -12 17 -27 20 -16 4 -47 10 -70 16
-23 5 -133 9 -245 10 -212 0 -214 0 -358 -53 -33 -12 -219 -144 -277 -196 -18
-17 -29 -20 -36 -13 -7 7 -57 11 -123 11 -84 0 -114 4 -123 14 -10 11 -8 17 9
29 18 13 67 127 87 202 12 50 110 255 121 255 12 0 62 114 62 141 0 18 10 23
38 20 10 -2 11 3 4 16 -8 14 1 36 39 101 27 45 49 88 49 95 0 12 46 87 60 97
4 3 10 16 13 30 17 69 52 78 412 105 525 39 572 42 789 50 71 2 132 7 135 11
3 3 26 3 50 0 24 -3 70 -6 102 -6z m-191 -187 c0 -10 -4 -14 -8 -8 -4 6 -11
13 -16 18 -5 4 -2 7 7 7 10 0 17 -8 17 -17z m890 -67 c0 -16 -25 -89 -46 -133
-15 -32 -46 -44 -59 -23 -10 16 7 107 26 139 14 24 26 31 49 31 19 0 30 -5 30
-14z m-1143 -148 c-3 -8 -6 -5 -6 6 -1 11 2 17 5 13 3 -3 4 -12 1 -19z m-177
-398 c0 -5 -6 -10 -14 -10 -8 0 -18 5 -21 10 -3 6 3 10 14 10 12 0 21 -4 21
-10z m428 -205 c2 -2 -16 -16 -40 -31 -23 -14 -52 -37 -63 -49 -13 -16 -35
-25 -65 -29 -156 -19 -216 -24 -223 -17 -5 5 11 21 34 37 24 16 58 45 76 64
l33 35 122 -3 c67 -1 124 -4 126 -7z m103 -25 c-13 -11 -30 -20 -39 -20 -10 0
-12 -3 -6 -9 5 -6 85 -13 177 -17 270 -11 220 -27 -138 -43 -99 -5 -183 -7
-187 -4 -17 9 -6 19 40 35 27 10 65 29 85 42 19 13 46 26 59 29 13 2 25 5 28
5 3 1 -6 -8 -19 -18z m69 10 c0 -5 -4 -10 -9 -10 -6 0 -13 5 -16 10 -3 6 1 10
9 10 9 0 16 -4 16 -10z"/>
<path d="M4594 5796 c-8 -22 3 -33 18 -18 9 9 9 15 0 24 -9 9 -13 7 -18 -6z"/>
<path d="M4660 5795 c-10 -12 -10 -18 0 -30 12 -14 15 -14 31 1 14 13 16 20 8
31 -15 17 -24 17 -39 -2z"/>
<path d="M3587 5773 c-3 -5 -1 -17 4 -28 7 -17 8 -17 8 8 1 27 -4 34 -12 20z"/>
<path d="M3541 5604 c0 -11 3 -14 6 -6 3 7 2 16 -1 19 -3 4 -6 -2 -5 -13z"/>
<path d="M4078 5145 c-33 -44 -14 -59 40 -31 15 8 49 17 75 21 70 11 59 27
-13 19 -42 -5 -60 -3 -60 5 0 19 -24 11 -42 -14z"/>
<path d="M6618 6053 c23 -2 59 -2 80 0 20 2 1 4 -43 4 -44 0 -61 -2 -37 -4z"/>
<path d="M5957 5983 c-3 -32 -13 -87 -22 -123 -20 -85 -44 -200 -55 -275 -27
-181 -41 -260 -51 -298 -6 -23 -15 -58 -20 -77 -5 -19 -23 -96 -40 -170 -16
-74 -39 -172 -51 -218 -15 -63 -18 -89 -10 -110 13 -33 27 -238 27 -382 0 -59
5 -114 11 -125 6 -11 9 -27 7 -35 -3 -12 -2 -11 6 1 7 11 8 109 3 300 -8 270
-7 285 11 305 13 16 15 24 7 29 -13 8 -6 59 15 109 12 28 37 153 50 251 3 22
12 68 20 102 12 52 52 275 108 603 14 87 15 162 1 167 -7 2 -14 -17 -17 -54z"/>
<path d="M7892 6015 c0 -16 2 -22 5 -12 2 9 2 23 0 30 -3 6 -5 -1 -5 -18z"/>
<path d="M7203 5943 c-4 -9 12 -170 35 -357 24 -188 47 -402 53 -476 18 -242
24 -299 35 -310 16 -16 309 -9 325 7 13 13 0 188 -26 338 -8 44 -21 145 -30
225 -36 320 -65 532 -77 558 l-13 27 -148 3 c-131 2 -148 1 -154 -15z m232
-695 c7 -7 -5 -9 -39 -4 -27 3 -55 6 -63 6 -8 0 -11 5 -7 11 8 13 94 3 109
-13z"/>
<path d="M6095 5931 c-4 -7 -4 -15 -1 -18 3 -3 202 -6 441 -5 l435 0 5 -21
c26 -121 84 -829 81 -987 -1 -33 -3 -35 -36 -34 -32 0 -35 2 -32 27 3 19 -1
27 -12 27 -9 0 -16 -4 -16 -10 0 -5 -13 -10 -30 -10 -16 0 -30 5 -30 10 0 6
-10 10 -22 10 -19 0 -20 2 -8 10 12 8 9 15 -20 39 -19 17 -39 30 -44 31 -4 0
-5 15 -2 34 4 22 2 37 -6 44 -8 6 -80 12 -176 14 l-162 3 2 -162 c1 -149 3
-163 19 -168 11 -4 27 -4 37 -1 9 2 143 10 297 16 154 6 286 13 294 16 9 3 10
8 3 17 -6 6 -15 104 -22 217 -16 304 -56 783 -69 850 l-7 35 -114 6 c-63 4
-268 10 -456 14 -262 6 -343 5 -349 -4z m666 -894 c-13 -13 -26 -3 -16 12 3 6
11 8 17 5 6 -4 6 -10 -1 -17z m191 -169 c-8 -8 -20 -8 -44 -1 l-33 11 45 1
c33 1 41 -2 32 -11z"/>
<path d="M7151 5884 c0 -11 3 -14 6 -6 3 7 2 16 -1 19 -3 4 -6 -2 -5 -13z"/>
<path d="M6059 5738 c-14 -26 2 -29 98 -18 48 5 109 10 136 10 26 0 47 4 47 9
0 6 -59 11 -136 13 -119 3 -137 1 -145 -14z"/>
<path d="M6418 5753 c12 -2 32 -2 45 0 12 2 2 4 -23 4 -25 0 -35 -2 -22 -4z"/>
<path d="M6702 5225 c-2 -28 51 -75 86 -75 29 0 28 17 0 26 -36 11 -67 37 -68
57 0 26 -15 20 -18 -8z"/>
<path d="M7950 5242 c0 -5 -52 -12 -117 -16 -64 -3 -121 -10 -127 -15 -12 -10
-7 -107 13 -296 6 -49 15 -263 20 -475 21 -773 44 -1309 58 -1336 17 -32 23
-92 10 -102 -7 -5 -50 -15 -97 -22 -47 -6 -96 -14 -110 -16 -14 -3 -92 -13
-175 -24 -82 -11 -211 -29 -285 -40 -276 -43 -458 -71 -545 -86 -116 -19 -422
-60 -595 -80 -168 -20 -164 -19 -156 -48 7 -30 -10 -38 -44 -21 -54 28 -95 96
-169 284 -49 123 -113 253 -172 348 -55 91 -197 237 -264 271 -63 32 -158 39
-298 23 -56 -6 -185 -21 -287 -32 -335 -36 -365 -42 -413 -82 -24 -19 -54 -51
-67 -70 -34 -49 -54 -59 -144 -68 -83 -8 -139 -25 -131 -40 3 -4 29 -15 58
-23 91 -27 92 -29 69 -122 -34 -130 -53 -229 -122 -634 -46 -270 -58 -325 -85
-393 -25 -61 -68 -117 -91 -117 -18 0 -35 -25 -38 -57 -3 -25 -8 -29 -47 -35
-162 -24 -739 -54 -739 -38 0 5 10 24 23 43 27 43 75 52 179 36 53 -8 77 -8
99 1 26 11 32 10 43 -5 8 -11 26 -18 44 -18 33 0 86 29 77 42 -2 5 -76 9 -162
10 -193 0 -297 13 -326 38 -12 10 -35 33 -53 50 -17 18 -40 33 -50 34 -55 1
-86 8 -108 23 -30 19 -46 3 -22 -23 28 -31 19 -41 -36 -41 -57 1 -119 19 -146
43 -9 9 -30 19 -47 23 -16 4 -42 14 -57 22 -34 20 -47 9 -23 -18 13 -15 15
-24 8 -31 -17 -17 -138 5 -169 30 -15 12 -36 21 -48 21 -12 0 -32 7 -44 16
-26 18 -41 12 -23 -9 33 -40 -85 -46 -140 -7 -14 10 -46 24 -70 30 -24 7 -47
17 -51 23 -4 6 -11 8 -15 3 -4 -5 -2 -11 5 -13 14 -5 16 -29 3 -37 -16 -10
-108 14 -132 35 -12 10 -29 19 -39 19 -9 0 -20 4 -25 9 -6 5 -21 12 -35 16
-14 3 -20 3 -15 -2 6 -4 17 -17 25 -27 14 -19 13 -19 -43 -13 -45 4 -65 12
-91 35 -19 16 -51 33 -72 37 -22 4 -45 12 -52 18 -21 17 -52 84 -68 144 -13
51 -13 58 5 87 20 34 38 186 22 186 -6 0 -21 -4 -34 -9 -33 -13 -47 -77 -47
-212 0 -81 5 -115 26 -179 32 -97 28 -113 -26 -108 -46 4 -51 -4 -14 -21 23
-10 25 -16 20 -46 -6 -30 -4 -34 16 -37 17 -2 24 -11 26 -33 4 -29 4 -30 -17
-11 -17 15 -23 16 -36 6 -11 -9 -15 -9 -15 -1 0 7 -5 9 -11 5 -8 -5 -6 -10 5
-16 10 -6 16 -22 16 -46 0 -21 7 -47 15 -59 8 -12 13 -28 10 -35 -3 -8 6 -31
20 -52 14 -20 25 -40 25 -45 0 -4 9 -25 19 -47 23 -47 19 -55 -12 -26 -25 24
-47 28 -64 11 -6 -6 -17 -12 -24 -13 -8 -2 -27 -8 -42 -14 -16 -7 -38 -12 -50
-12 -12 0 -49 -14 -82 -30 -33 -16 -65 -30 -71 -30 -20 0 -66 -50 -60 -65 3
-8 1 -15 -5 -15 -42 0 99 -100 150 -106 9 -1 43 -9 76 -18 33 -10 68 -19 79
-21 10 -3 42 -11 70 -19 45 -13 122 -28 521 -105 146 -28 295 -51 332 -51 17
0 34 -4 38 -9 3 -5 41 -13 85 -17 44 -3 83 -10 85 -15 3 -4 31 -10 63 -14 31
-3 80 -10 107 -15 28 -6 70 -11 95 -13 25 -2 55 -9 67 -15 12 -7 35 -12 50
-12 16 0 33 -4 38 -9 16 -15 298 -39 585 -51 146 -6 369 -20 495 -31 536 -44
788 -48 1017 -14 131 20 166 31 203 65 17 15 50 40 74 55 58 36 135 108 181
170 21 28 54 68 75 90 20 22 53 65 72 95 34 52 53 73 61 65 2 -1 -2 -12 -9
-24 -7 -11 -11 -22 -9 -25 7 -6 90 17 119 33 14 8 50 13 83 12 32 -1 58 3 58
7 0 12 153 34 174 26 10 -4 27 -2 39 4 32 15 149 32 173 26 12 -3 63 2 115 11
52 9 144 20 206 24 61 4 118 13 126 19 9 8 29 10 55 6 23 -4 75 1 126 11 51
10 103 15 126 11 21 -3 60 -2 87 4 26 6 73 12 103 14 30 3 84 10 120 16 36 6
83 9 106 5 63 -9 124 4 124 26 0 13 7 19 21 19 15 0 19 -5 15 -15 -7 -19 8
-19 79 0 31 8 62 12 70 8 14 -5 61 1 205 28 30 5 73 11 95 13 71 6 253 32 425
60 47 8 128 19 180 26 52 6 158 20 235 30 457 62 506 64 805 40 102 -8 277
-15 390 -15 228 0 271 9 290 61 6 14 28 46 49 71 22 24 62 90 91 146 100 200
143 427 122 652 -5 66 -8 123 -5 128 3 4 63 5 134 1 l128 -7 12 29 c14 35 17
189 5 262 -7 45 -6 52 7 52 9 0 24 12 33 26 16 24 16 29 -1 92 -10 37 -17 83
-16 102 1 19 3 57 4 85 l3 49 139 -3 c77 -2 256 -6 398 -10 142 -3 262 -2 266
2 5 5 -11 45 -35 89 -24 45 -44 94 -44 109 0 37 -9 59 -23 54 -7 -3 -57 -9
-112 -14 -132 -14 -498 -56 -655 -77 -69 -9 -136 -17 -150 -19 -27 -3 -29 -24
-4 -38 8 -4 14 -17 14 -27 0 -10 4 -21 9 -24 14 -9 121 -173 121 -185 0 -28
-29 -5 -66 52 -22 34 -64 97 -93 140 -51 73 -55 77 -85 72 -58 -9 -359 -45
-551 -66 -104 -11 -199 -22 -211 -25 -12 -3 -26 -21 -36 -47 -17 -43 -137
-302 -151 -325 -11 -17 -27 -5 -27 20 0 11 34 90 75 176 42 85 72 159 68 163
-4 4 -136 -8 -293 -26 -157 -18 -334 -39 -395 -45 -60 -7 -121 -17 -135 -23
-14 -5 -70 -11 -125 -14 -95 -4 -227 -19 -380 -44 -85 -13 -169 -17 -252 -11
-63 5 -89 22 -34 22 16 0 39 8 52 19 l23 18 -23 8 c-18 5 -20 9 -10 16 11 6
11 11 1 21 -14 14 -16 48 -3 48 5 0 14 13 19 29 9 24 16 30 41 29 27 -1 30 -4
28 -32 -1 -17 3 -32 8 -33 6 -2 10 22 11 56 0 33 5 66 11 73 7 9 7 77 2 208
-5 107 -10 285 -13 395 -2 110 -6 236 -9 280 -3 44 -6 134 -6 200 -1 66 -4
150 -7 187 l-7 67 -58 -6 -59 -6 0 31 c0 17 -4 34 -10 37 -5 3 -10 2 -10 -3z
m29 -287 c10 -27 17 -34 30 -30 36 11 51 -35 55 -163 1 -64 8 -127 14 -139 18
-34 -5 -40 -36 -10 -25 25 -25 30 -26 159 -1 111 -3 133 -16 133 -9 0 -16 -11
-18 -28 -4 -30 -22 -27 -22 4 0 11 -7 34 -16 50 -8 17 -13 37 -10 45 10 25 32
15 45 -21z m-89 21 c0 -3 -4 -8 -10 -11 -5 -3 -10 -1 -10 4 0 6 5 11 10 11 6
0 10 -2 10 -4z m183 -433 c3 -5 1 -17 -4 -28 -4 -11 -8 -15 -8 -8 -1 6 -4 18
-7 27 -6 16 11 23 19 9z m-6 -105 c-3 -8 -6 -5 -6 6 -1 11 2 17 5 13 3 -3 4
-12 1 -19z m14 -198 c13 0 7 -220 -6 -221 -6 -1 -8 25 -5 67 5 77 4 109 -3
174 -2 25 -2 30 0 13 2 -18 9 -33 14 -33z m-74 -232 c-3 -8 -6 -5 -6 6 -1 11
2 17 5 13 3 -3 4 -12 1 -19z m-6 -145 c-8 -15 -10 -10 -11 22 0 22 4 51 8 65
6 20 8 16 10 -22 2 -26 -2 -56 -7 -65z m97 79 c10 -30 -2 -67 -19 -57 -12 8
-12 85 0 85 5 0 13 -13 19 -28z m1381 -366 c-45 -93 -69 -127 -69 -97 0 15 72
164 94 194 38 52 27 10 -25 -97z m-255 -8 c6 -59 -3 -93 -19 -69 -11 18 -26
142 -19 153 13 20 31 -21 38 -84z m-480 26 c3 -8 2 -12 -4 -9 -6 3 -10 10 -10
16 0 14 7 11 14 -7z m1371 -21 c22 -8 55 -26 73 -39 51 -39 38 -62 -15 -27
-36 24 -84 39 -106 35 -24 -5 -11 -22 17 -22 12 0 52 -20 89 -45 37 -25 71
-45 75 -46 24 -1 90 -117 101 -175 9 -49 -4 -72 -15 -27 -4 15 -12 35 -19 43
-6 8 -15 23 -18 33 -4 9 -12 17 -19 17 -7 0 -22 14 -33 31 -26 40 -52 54 -70
39 -11 -9 -17 -7 -27 9 -14 23 -39 27 -69 10 -16 -8 -23 -7 -33 6 -13 18 -46
11 -46 -10 0 -16 -28 -40 -48 -40 -14 0 -26 -15 -35 -45 -3 -9 -16 -22 -31
-29 -24 -13 -28 -13 -41 5 -16 22 -19 7 -6 -29 7 -18 4 -31 -11 -55 -11 -18
-26 -32 -34 -32 -16 0 -19 26 -4 35 6 3 10 10 10 16 0 5 -4 9 -10 9 -5 0 -10
-6 -10 -14 0 -8 -7 -16 -15 -20 -8 -3 -15 -14 -15 -25 0 -11 -4 -23 -10 -26
-5 -3 -10 -15 -10 -25 0 -21 -15 -34 -29 -26 -17 11 46 181 80 216 8 8 27 35
44 58 36 54 102 112 127 112 21 0 22 8 4 33 -16 21 -55 22 -62 2 -4 -8 -12
-15 -19 -15 -20 0 -144 -128 -166 -171 -10 -21 -33 -60 -49 -86 -17 -26 -30
-55 -30 -65 0 -10 -4 -18 -10 -18 -19 0 -11 23 49 150 73 155 188 259 301 271
63 6 89 3 145 -18z m-792 -8 c-3 -9 -8 -14 -10 -11 -3 3 -2 9 2 15 9 16 15 13
8 -4z m-547 -84 c4 -26 3 -41 -4 -41 -16 0 -19 9 -26 75 -6 57 -6 59 9 34 8
-15 17 -45 21 -68z m1929 47 c7 -18 16 -50 20 -70 6 -31 4 -38 -9 -38 -19 0
-31 26 -40 93 -9 56 8 64 29 15z m-1399 -36 c-4 -3 -11 -1 -18 6 -8 8 -8 15 3
28 13 16 14 16 17 -5 2 -13 1 -25 -2 -29z m-659 -9 c-3 -10 -5 -4 -5 12 0 17
2 24 5 18 2 -7 2 -21 0 -30z m1598 -13 c3 -5 1 -10 -4 -10 -6 0 -11 5 -11 10
0 6 2 10 4 10 3 0 8 -4 11 -10z m-129 -255 c44 -21 108 -89 116 -122 4 -16 17
-62 28 -103 12 -41 27 -92 33 -113 11 -39 -2 -175 -28 -303 -12 -59 -79 -188
-111 -215 -18 -15 -18 -29 1 -29 10 0 8 -6 -8 -23 -33 -36 -75 -60 -92 -53
-22 8 -18 33 5 39 11 3 20 10 20 17 0 8 -12 10 -39 5 -65 -11 -116 21 -184
115 -53 73 -67 122 -78 272 -8 126 -8 143 12 215 12 43 25 83 30 89 5 6 15 30
23 52 21 59 70 127 114 158 30 21 45 25 82 20 25 -2 59 -12 76 -21z m-1748 -8
c2 -12 -3 -17 -17 -17 -12 0 -21 6 -21 13 0 31 32 34 38 4z m226 -38 c-3 -5
-10 -7 -15 -3 -5 3 -7 10 -3 15 3 5 10 7 15 3 5 -3 7 -10 3 -15z m-3537 -25
c-3 -3 -12 -4 -19 -1 -8 3 -5 6 6 6 11 1 17 -2 13 -5z m4711 -19 c-6 -14 -13
-23 -16 -21 -7 7 9 46 18 46 5 0 4 -11 -2 -25z m-1528 6 c0 -12 -20 -25 -27
-18 -7 7 6 27 18 27 5 0 9 -4 9 -9z m430 -16 c0 -8 -7 -15 -15 -15 -16 0 -20
12 -8 23 11 12 23 8 23 -8z m-537 -55 c-1 -38 3 -60 14 -72 13 -14 13 -20 3
-33 -7 -8 -21 -15 -31 -15 -11 0 -19 -7 -19 -15 0 -8 3 -15 8 -15 4 0 16 -18
26 -40 17 -35 18 -42 5 -54 -8 -7 -75 -23 -149 -35 -74 -12 -171 -28 -215 -36
-148 -26 -209 -35 -214 -30 -8 9 4 14 94 37 86 21 88 22 59 34 -26 11 -27 13
-10 20 10 4 27 2 38 -5 17 -11 19 -10 14 6 -5 15 1 18 36 20 49 3 55 8 38 28
-10 12 -10 18 0 30 7 9 14 32 15 52 0 22 7 40 17 47 24 15 37 -3 14 -20 -18
-13 -17 -14 17 -29 20 -8 38 -15 40 -15 2 0 10 18 17 41 8 23 20 44 28 46 11
5 11 7 0 15 -9 7 -4 8 16 3 23 -5 27 -3 23 9 -5 12 0 16 18 16 14 0 25 5 25
10 0 14 -37 12 -93 -5 -61 -18 -89 -10 -69 21 7 11 190 44 222 40 12 -1 15
-14 13 -56z m717 30 c14 -26 -3 -60 -30 -60 -10 0 -22 9 -25 20 -9 29 4 60 25
60 11 0 24 -9 30 -20z m-3855 -20 c28 -5 75 -22 105 -37 74 -36 206 -168 255
-256 36 -65 85 -194 85 -223 0 -20 -30 -17 -37 4 -15 47 -45 101 -58 106 -8 3
-15 17 -15 32 0 14 -10 40 -22 57 -20 27 -22 28 -29 11 -7 -18 -8 -17 -8 3 -2
38 -12 55 -26 43 -17 -14 -66 25 -58 46 3 9 -2 14 -16 14 -11 0 -25 9 -31 20
-6 11 -16 20 -23 20 -7 0 -25 7 -40 15 -22 11 -32 12 -47 3 -16 -10 -22 -8
-38 12 -17 21 -22 22 -35 11 -16 -13 -93 -11 -130 4 -13 5 -23 1 -32 -13 -8
-11 -29 -22 -47 -25 -66 -11 -90 -20 -113 -43 -13 -13 -31 -24 -38 -24 -8 0
-18 -7 -21 -15 -5 -13 -10 -14 -27 -5 -26 14 -58 -5 -78 -46 -35 -77 -56 -114
-63 -114 -15 0 -8 20 36 102 24 46 49 99 55 120 14 43 40 57 58 32 12 -16 13
-14 13 14 0 36 22 51 45 32 15 -13 19 -8 15 23 -1 12 13 24 44 38 25 11 46 25
46 30 0 6 8 8 18 5 9 -3 40 1 67 8 52 15 106 14 190 -4z m3235 -31 c0 -5 -4
-9 -10 -9 -5 0 -10 7 -10 16 0 8 5 12 10 9 6 -3 10 -10 10 -16z m455 -69 c3
-5 1 -10 -4 -10 -6 0 -11 5 -11 10 0 6 2 10 4 10 3 0 8 -4 11 -10z m-852 -27
c-7 -2 -13 -18 -13 -33 0 -16 -5 -32 -10 -35 -6 -4 -8 -11 -5 -16 4 -5 0 -9
-7 -9 -9 0 -13 10 -12 28 2 48 15 72 38 71 11 0 15 -3 9 -6z m363 -38 c-21
-16 -56 -20 -56 -7 0 16 13 22 44 22 29 -1 30 -1 12 -15z m848 -222 c9 -28 16
-60 16 -71 0 -11 6 -25 14 -31 20 -17 107 -10 116 9 4 8 16 33 25 55 29 66 31
69 43 73 8 2 12 -11 12 -40 0 -69 38 -276 66 -361 18 -52 23 -82 16 -89 -6 -6
-15 -2 -25 12 -12 18 -21 21 -45 15 -18 -4 -33 -2 -37 5 -4 7 -11 8 -19 1 -15
-13 -445 4 -636 25 -80 9 -170 16 -200 15 -64 -1 -366 35 -425 50 -21 6 -62
13 -89 16 -28 2 -56 9 -62 14 -8 7 -14 6 -19 -1 -7 -12 -35 -14 -35 -1 0 4 18
40 39 79 22 39 49 100 60 134 15 43 34 75 60 101 l39 39 86 -7 c61 -5 93 -13
110 -26 17 -13 40 -19 79 -19 33 0 72 -8 98 -20 24 -11 59 -20 78 -20 18 0 59
-7 90 -15 31 -8 73 -14 92 -13 19 0 44 -4 56 -10 34 -19 124 -15 158 7 17 10
65 51 109 91 76 69 79 71 96 53 9 -10 25 -41 34 -70z m-4079 18 c64 -31 138
-95 179 -158 33 -50 73 -184 86 -287 11 -90 7 -195 -7 -205 -5 -3 -10 -24 -10
-46 1 -22 -7 -65 -16 -96 -16 -57 -76 -189 -85 -189 -2 0 -10 7 -17 16 -11 16
-12 16 -18 0 -4 -10 -1 -16 8 -16 23 0 18 -24 -10 -50 l-26 -24 2 35 c2 19 -1
40 -5 47 -11 18 -67 15 -97 -6 -38 -25 -99 -97 -99 -116 0 -23 15 -20 81 19
111 65 155 30 57 -44 -88 -66 -131 -79 -244 -77 -146 2 -199 34 -296 177 -86
128 -128 284 -99 372 19 57 23 110 10 134 -10 19 -8 37 10 100 30 102 70 178
124 233 24 25 51 59 60 76 18 34 104 97 164 119 21 7 72 14 113 14 63 1 85 -4
135 -28z m2499 13 c26 -10 7 -24 -32 -24 -35 1 -36 2 -18 15 22 17 27 18 50 9z
m-114 -24 c0 -12 -28 -25 -36 -17 -9 9 6 27 22 27 8 0 14 -5 14 -10z m-432
-152 c16 -9 28 -8 45 1 13 7 37 11 53 8 l29 -4 -32 -2 c-17 0 -35 -5 -38 -11
-9 -15 -56 -11 -100 10 -35 17 -37 19 -10 14 17 -3 40 -10 53 -16z m202 7 c0
-10 -11 -15 -35 -15 -56 0 -41 25 18 29 9 0 17 -6 17 -14z m-1330 -45 c11 -7
5 -10 -23 -10 -23 0 -36 4 -32 10 8 13 35 13 55 0z m369 -24 c18 -14 56 -30
84 -37 65 -15 332 -15 417 0 36 7 81 14 100 17 19 2 58 10 87 16 62 13 74 7
93 -52 14 -43 9 -60 -13 -42 -10 8 -36 6 -103 -8 -132 -29 -306 -75 -329 -87
-11 -6 -40 -14 -65 -18 -25 -4 -67 -15 -95 -25 -29 -10 -80 -18 -122 -18 -40
-1 -81 -5 -90 -11 -9 -5 -41 -7 -70 -4 -69 7 -143 -13 -143 -38 0 -11 -4 -19
-10 -19 -5 0 -10 11 -10 25 0 14 -4 25 -10 25 -5 0 -10 -9 -10 -19 0 -25 -20
-38 -31 -20 -8 12 -11 12 -19 -1 -5 -8 -10 -22 -10 -29 0 -10 -3 -12 -10 -5
-15 15 -72 306 -63 315 4 4 46 13 93 20 47 6 123 17 170 24 121 18 123 18 159
-9z m546 14 c18 -7 16 -10 -19 -25 -55 -23 -96 -2 -43 23 26 13 36 13 62 2z
m-5385 -253 c0 -8 -3 -17 -7 -20 -9 -9 -34 13 -27 24 8 14 34 11 34 -4z m-80
-133 c0 -25 -15 -33 -23 -11 -6 18 4 48 14 41 5 -3 9 -16 9 -30z m110 21 c7
-8 25 -15 41 -15 15 0 32 -6 36 -14 4 -7 13 -15 20 -17 8 -3 9 -9 4 -18 -8
-12 -12 -12 -26 2 -9 10 -29 17 -45 17 -16 0 -35 2 -42 5 -8 3 -25 -3 -38 -15
-13 -11 -32 -20 -42 -20 -18 0 -18 1 -4 16 9 8 16 20 16 25 0 14 38 49 54 49
7 0 19 -7 26 -15z m74 -111 c22 -9 20 -24 -3 -24 -21 0 -34 13 -24 24 8 7 8 7
27 0z m1254 -40 c12 -4 22 -12 22 -20 0 -15 -97 -17 -117 -2 -8 6 -19 2 -32
-11 -27 -27 -27 -12 -1 17 21 22 77 29 128 16z m107 -74 c3 -5 1 -10 -4 -10
-6 0 -11 5 -11 10 0 6 2 10 4 10 3 0 8 -4 11 -10z m-48 -70 c10 -14 34 -20
104 -25 117 -9 98 -25 -28 -23 -80 1 -93 3 -93 18 0 9 -12 22 -26 28 -14 7
-22 17 -19 22 9 14 47 1 62 -20z m423 -39 c0 -5 -9 -7 -20 -4 -11 3 -20 7 -20
9 0 2 9 4 20 4 11 0 20 -4 20 -9z m1970 -276 c0 -21 -27 -30 -45 -15 -23 19
-18 30 15 30 20 0 30 -5 30 -15z m-579 -18 c24 -13 58 -27 74 -31 46 -11 147
-27 177 -27 14 0 29 -6 32 -14 3 -8 12 -15 20 -15 18 0 30 31 15 40 -8 6 -8 9
0 14 6 4 11 2 11 -3 0 -6 9 -11 19 -11 11 0 23 -5 27 -11 4 -8 9 -8 18 1 8 8
7 13 -2 19 -11 7 -10 9 2 14 10 4 16 1 16 -8 0 -8 9 -15 19 -15 34 0 36 -22 5
-47 -34 -27 -52 -29 -60 -8 -4 8 -13 15 -22 15 -12 0 -13 -3 -4 -12 7 -7 12
-21 12 -31 0 -17 -2 -18 -16 -6 -13 10 -17 10 -25 -2 -5 -8 -9 -20 -9 -26 0
-18 -20 -16 -42 4 -16 14 -23 15 -38 5 -36 -22 -50 -15 -43 19 l6 32 -46 -7
c-39 -6 -47 -5 -47 8 0 10 -9 16 -25 16 -14 0 -29 8 -35 20 -6 10 -16 17 -24
14 -14 -5 -76 47 -76 65 0 16 12 14 61 -12z m489 -29 c0 -4 -7 -8 -15 -8 -10
0 -15 10 -15 28 1 26 1 26 15 8 8 -11 15 -23 15 -28z"/>
<path d="M9931 3139 c-37 -37 -38 -49 -7 -78 19 -18 31 -22 55 -16 50 11 69
75 33 108 -27 24 -46 21 -81 -14z"/>
<path d="M10110 3135 c0 -16 27 -32 37 -21 7 7 -16 36 -28 36 -5 0 -9 -7 -9
-15z"/>
<path d="M10106 3021 c-3 -5 8 -14 25 -20 17 -6 44 -25 60 -42 34 -36 39 -17
6 22 -34 41 -79 60 -91 40z"/>
<path d="M9841 2977 c-15 -18 -43 -133 -39 -160 5 -33 68 -37 97 -6 42 45 37
103 -12 157 -24 26 -30 27 -46 9z"/>
<path d="M10054 2945 c-8 -21 3 -48 19 -43 19 7 22 58 2 58 -8 0 -18 -7 -21
-15z"/>
<path d="M10164 2896 c-8 -22 3 -49 19 -43 6 2 12 14 12 27 0 27 -22 39 -31
16z"/>
<path d="M9987 2784 c-11 -11 -8 -52 3 -59 17 -10 41 16 38 39 -3 21 -28 33
-41 20z"/>
<path d="M9840 2730 c0 -5 5 -10 11 -10 5 0 7 5 4 10 -3 6 -8 10 -11 10 -2 0
-4 -4 -4 -10z"/>
<path d="M10164 2684 c-7 -27 7 -50 25 -40 6 4 11 20 11 37 0 37 -27 40 -36 3z"/>
<path d="M9811 2671 c-26 -17 20 -172 55 -185 22 -8 37 20 22 43 -10 17 -9 23
10 44 29 30 29 71 0 91 -25 18 -65 21 -87 7z"/>
<path d="M10062 2618 c-14 -14 -16 -44 -3 -53 13 -8 43 24 39 43 -4 20 -21 25
-36 10z"/>
<path d="M10176 2495 c-4 -12 -1 -16 14 -13 24 3 28 22 7 26 -8 2 -17 -4 -21
-13z"/>
<path d="M9951 2441 c-17 -16 -31 -34 -31 -40 0 -15 34 -31 69 -31 27 0 31 4
31 26 0 14 4 23 10 19 16 -10 24 23 10 40 -19 23 -55 18 -89 -14z"/>
<path d="M8075 3056 c-27 -23 -27 -24 -8 -35 15 -7 19 -17 16 -36 -6 -28 16
-35 36 -11 9 11 8 18 -5 30 -11 12 -14 26 -10 46 3 17 4 30 2 30 -1 0 -15 -11
-31 -24z"/>
<path d="M8066 2915 c-4 -11 -13 -15 -25 -12 -10 2 -25 1 -32 -4 -10 -6 -6 -9
13 -9 37 0 46 -19 18 -40 l-23 -17 39 -6 c22 -4 43 -2 51 5 15 12 18 48 3 48
-5 0 -16 12 -23 26 -12 23 -15 24 -21 9z"/>
<path d="M7880 2880 c-6 -11 -16 -17 -25 -14 -8 4 -15 1 -15 -4 0 -6 16 -14
35 -18 29 -5 33 -9 24 -20 -6 -8 -30 -14 -55 -14 -23 0 -46 -4 -49 -10 -7 -11
82 -14 109 -4 22 8 23 104 1 104 -8 0 -19 -9 -25 -20z"/>
<path d="M4780 2690 c-8 -4 -35 -16 -60 -26 -51 -21 -130 -71 -130 -83 0 -16
42 -61 68 -75 80 -40 152 -19 171 51 14 48 14 72 0 112 -11 32 -22 36 -49 21z"/>
<path d="M4870 2650 c0 -13 5 -20 13 -17 6 2 12 10 12 17 0 7 -6 15 -12 18 -8
2 -13 -5 -13 -18z"/>
<path d="M4930 2620 c0 -27 32 -90 57 -112 29 -27 76 -33 96 -13 23 23 22 65
-1 65 -10 0 -29 12 -43 26 -22 23 -79 54 -100 54 -5 0 -9 -9 -9 -20z"/>
<path d="M4566 2514 c-9 -25 19 -53 36 -36 9 9 10 17 2 29 -15 24 -30 27 -38
7z"/>
<path d="M4461 2420 c-64 -120 -89 -231 -55 -244 9 -3 35 -6 58 -6 34 0 51 7
83 35 48 41 77 104 67 149 -6 32 -89 126 -110 126 -6 0 -26 -27 -43 -60z"/>
<path d="M4942 2348 c-16 -16 -15 -50 2 -74 30 -39 71 19 46 65 -12 24 -30 27
-48 9z"/>
<path d="M4733 2308 c-11 -24 -2 -61 16 -73 35 -21 72 35 51 75 -15 27 -54 26
-67 -2z"/>
<path d="M5170 2225 c0 -14 4 -25 9 -25 4 0 6 11 3 25 -2 14 -6 25 -8 25 -2 0
-4 -11 -4 -25z"/>
<path d="M4414 2125 c-7 -18 12 -45 32 -45 15 0 28 35 19 50 -9 15 -45 12 -51
-5z"/>
<path d="M5100 2100 c0 -22 -11 -69 -25 -106 -30 -79 -31 -98 -5 -64 37 48 68
210 40 210 -5 0 -10 -18 -10 -40z"/>
<path d="M5012 2098 c-18 -18 -15 -77 4 -85 23 -9 46 25 42 62 -3 32 -25 44
-46 23z"/>
<path d="M4393 2053 c-27 -5 -28 -12 -8 -121 13 -78 55 -192 70 -192 14 0 96
64 110 86 17 26 20 100 5 109 -5 3 -10 14 -10 23 0 9 -15 34 -33 54 -33 37
-80 52 -134 41z"/>
<path d="M4677 2042 c-22 -24 -22 -55 1 -74 38 -34 88 23 62 71 -13 26 -41 27
-63 3z"/>
<path d="M5150 1989 c-19 -34 -39 -109 -31 -114 10 -6 38 54 46 99 8 40 1 47
-15 15z"/>
<path d="M4852 1908 c-38 -46 -17 -97 32 -78 24 9 27 15 24 47 -2 30 -8 39
-24 41 -11 2 -26 -3 -32 -10z"/>
<path d="M4507 1744 c-4 -4 -7 -16 -7 -26 0 -13 7 -18 26 -18 21 0 25 4 22 22
-3 23 -27 35 -41 22z"/>
<path d="M4594 1714 c-74 -39 -82 -49 -58 -75 10 -12 49 -36 86 -55 36 -18 69
-38 73 -44 14 -23 32 -7 50 46 24 70 22 91 -7 120 -37 36 -86 39 -144 8z"/>
<path d="M4792 1588 c-7 -7 -12 -20 -12 -31 0 -30 34 -16 38 16 4 29 -6 35
-26 15z"/>
<path d="M11430 5218 c0 -31 10 -45 43 -57 32 -12 41 -1 35 46 -3 24 -8 28
-40 31 -34 3 -38 1 -38 -20z"/>
<path d="M6160 5218 c-25 -5 -53 -17 -62 -25 -24 -22 -33 -54 -17 -63 10 -7 9
-13 -4 -33 -9 -13 -17 -49 -19 -78 -3 -51 -8 -51 -23 -4 -6 21 -37 7 -71 -34
-24 -29 -29 -43 -27 -83 1 -26 -2 -48 -7 -48 -10 0 -15 43 -12 90 3 36 -7 72
-18 65 -9 -6 -12 -122 -4 -155 6 -23 104 -23 104 0 0 22 9 30 26 23 18 -6 18
-37 1 -51 -7 -6 -38 -9 -70 -7 -53 3 -58 1 -63 -20 -14 -54 -5 -60 79 -56 66
3 77 1 77 -13 0 -9 11 -28 25 -42 43 -43 34 -51 -52 -48 -43 1 -103 5 -134 9
-103 13 -111 -3 -86 -174 15 -100 37 -122 37 -37 0 30 4 57 9 60 4 3 52 11
106 17 l98 12 20 -27 c17 -23 25 -26 82 -26 38 0 66 5 72 13 7 8 7 37 0 83
-15 102 -13 104 85 104 81 0 127 13 135 37 2 6 -5 14 -17 18 -20 6 -21 11 -17
233 2 125 5 236 8 247 4 19 -2 20 -106 22 -60 0 -130 -3 -155 -9z m-100 -618
c21 -7 19 -8 -17 -9 -24 -1 -43 4 -43 9 0 12 24 12 60 0z"/>
<path d="M5813 4736 c-32 -10 -41 -28 -25 -52 10 -17 71 -5 82 16 15 28 -17
48 -57 36z"/>
<path d="M11512 4690 c0 -14 2 -19 5 -12 2 6 2 18 0 25 -3 6 -5 1 -5 -13z"/>
<path d="M6975 4633 c-51 -6 -65 -18 -65 -59 0 -39 25 -69 49 -57 9 4 50 8 91
8 41 0 78 5 82 10 15 20 9 93 -8 99 -16 6 -80 6 -149 -1z"/>
<path d="M3680 4555 c0 -10 7 -15 18 -13 21 4 19 22 -2 26 -10 2 -16 -3 -16
-13z"/>
<path d="M11512 4445 c0 -16 2 -22 5 -12 2 9 2 23 0 30 -3 6 -5 -1 -5 -18z"/>
<path d="M7630 4440 c0 -5 7 -10 16 -10 8 0 12 5 9 10 -3 6 -10 10 -16 10 -5
0 -9 -4 -9 -10z"/>
<path d="M7385 4430 c-3 -5 -1 -10 4 -10 6 0 11 5 11 10 0 6 -2 10 -4 10 -3 0
-8 -4 -11 -10z"/>
<path d="M7496 4424 c-11 -28 -7 -74 7 -74 8 0 12 16 12 45 1 46 -8 58 -19 29z"/>
<path d="M7559 4417 c-9 -21 -9 -30 1 -42 12 -14 15 -13 33 6 19 21 19 21 -1
42 l-21 20 -12 -26z"/>
<path d="M7420 4393 c1 -24 28 -59 37 -48 5 4 2 10 -4 12 -7 3 -13 16 -13 29
0 13 -4 24 -10 24 -5 0 -10 -8 -10 -17z"/>
<path d="M7312 4392 c-10 -7 -10 -15 -2 -38 l12 -29 13 25 c25 44 13 64 -23
42z"/>
<path d="M7641 4353 c-1 -26 -30 -36 -82 -31 -28 2 -35 -1 -37 -17 -3 -19 3
-21 55 -23 66 -3 106 16 86 39 -6 8 -13 23 -16 34 -4 18 -5 18 -6 -2z"/>
<path d="M7380 4350 c0 -5 5 -10 10 -10 6 0 10 5 10 10 0 6 -4 10 -10 10 -5 0
-10 -4 -10 -10z"/>
<path d="M11105 4334 c-71 -8 -164 -17 -205 -21 -57 -6 -75 -12 -75 -23 0 -9
8 -14 20 -13 11 2 92 8 180 14 88 6 164 15 169 20 5 4 29 6 53 2 39 -5 43 -4
43 16 0 25 2 25 -185 5z"/>
<path d="M5966 4315 c4 -8 8 -15 10 -15 2 0 4 7 4 15 0 8 -4 15 -10 15 -5 0
-7 -7 -4 -15z"/>
<path d="M7695 4319 c-10 -15 3 -25 16 -12 7 7 7 13 1 17 -6 3 -14 1 -17 -5z"/>
<path d="M11353 4304 c-7 -18 11 -39 26 -30 6 4 16 16 21 27 9 16 7 19 -15 19
-14 0 -28 -7 -32 -16z"/>
<path d="M11306 4263 c-4 -4 -22 -6 -41 -5 -19 2 -35 -2 -35 -7 0 -12 19 -18
60 -17 25 1 36 6 38 19 3 17 -9 23 -22 10z"/>
<path d="M11012 4233 c2 -10 10 -18 18 -18 22 0 18 29 -3 33 -14 3 -18 -1 -15
-15z"/>
<path d="M7630 4234 c-13 -4 -24 -25 -59 -107 -1 -4 21 -7 50 -5 l54 3 3 49
c2 32 -1 52 -10 57 -14 9 -14 9 -38 3z"/>
<path d="M11070 4225 c0 -8 4 -15 9 -15 5 0 11 7 15 15 3 9 0 15 -9 15 -8 0
-15 -7 -15 -15z"/>
<path d="M10862 4218 c-16 -16 -15 -28 3 -28 8 0 15 9 15 20 0 23 -2 24 -18 8z"/>
<path d="M7368 4213 c-13 -3 -18 -14 -18 -38 0 -52 9 -65 44 -65 32 0 32 1 32
48 -1 35 3 47 14 47 8 0 16 -10 18 -22 2 -13 7 -23 12 -23 13 0 32 39 25 50
-6 10 -94 12 -127 3z"/>
<path d="M4870 4180 c-43 -7 -41 -7 20 -7 36 0 79 3 95 7 25 6 22 8 -20 7 -27
0 -70 -3 -95 -7z"/>
<path d="M7520 4155 c-27 -29 -18 -48 18 -39 16 5 22 14 22 35 0 36 -10 36
-40 4z"/>
<path d="M4601 4159 c-34 -4 -68 -10 -75 -12 -19 -7 216 5 259 13 57 11 -98
10 -184 -1z"/>
<path d="M11480 4150 c0 -5 10 -10 23 -10 18 0 19 2 7 10 -19 13 -30 13 -30 0z"/>
<path d="M4285 4140 c-31 -6 -20 -7 50 -8 61 -1 85 1 75 8 -17 11 -65 11 -125
0z"/>
<path d="M3993 4133 c9 -2 23 -2 30 0 6 3 -1 5 -18 5 -16 0 -22 -2 -12 -5z"/>
<path d="M3633 4123 c20 -2 54 -2 75 0 20 2 3 4 -38 4 -41 0 -58 -2 -37 -4z"/>
<path d="M10435 4040 c3 -5 8 -10 11 -10 2 0 4 5 4 10 0 6 -5 10 -11 10 -5 0
-7 -4 -4 -10z"/>
<path d="M3965 4009 c-22 -5 -79 -11 -126 -13 -302 -18 -467 -38 -686 -82 -95
-19 -91 -19 -99 21 -4 25 -12 35 -25 35 -10 0 -20 -4 -23 -9 -3 -5 -24 -7 -46
-4 -21 3 -47 2 -57 -1 -14 -6 -10 -11 22 -25 34 -16 42 -16 51 -5 16 20 23 17
33 -8 9 -26 -25 -103 -89 -198 -20 -30 -43 -70 -51 -87 -16 -39 -33 -44 -27
-8 3 14 1 25 -3 25 -5 0 -9 -8 -10 -17 0 -12 -2 -13 -6 -5 -3 7 3 29 12 50 9
20 21 48 27 62 28 65 44 90 57 90 19 0 67 53 52 58 -7 2 -21 -4 -32 -14 -10
-9 -22 -14 -26 -10 -4 4 -2 10 5 15 8 5 6 12 -10 25 -15 14 -22 15 -28 6 -5
-9 -24 -11 -58 -8 -28 3 -55 1 -61 -5 -5 -5 -24 -11 -43 -13 -18 -2 -40 -6
-48 -10 -12 -4 -12 -6 0 -14 8 -5 21 -5 29 0 8 4 26 4 39 -1 13 -5 29 -6 34
-2 6 3 29 5 51 5 22 -1 46 3 53 9 11 9 14 8 14 -5 0 -22 -8 -24 -135 -30 -115
-5 -181 3 -197 26 -6 9 -7 6 -3 -9 5 -17 1 -22 -22 -27 -62 -12 -124 -10 -133
4 -7 12 -14 10 -37 -12 -28 -27 -30 -27 -113 -20 -123 10 -170 5 -170 -18 0
-10 -9 -34 -19 -52 -41 -69 -114 -288 -105 -312 6 -17 55 -25 134 -23 l54 2 9
40 c15 68 57 196 86 259 30 65 71 100 93 78 8 -8 3 -26 -20 -69 -35 -68 -102
-260 -102 -296 0 -22 5 -25 52 -30 33 -4 55 -3 59 4 5 8 8 8 13 0 4 -6 27 -11
51 -11 43 0 43 0 50 43 8 46 32 114 48 135 20 26 25 -5 12 -83 -16 -94 -11
-104 53 -107 23 -1 42 -5 42 -10 0 -11 -65 -10 -115 2 -21 5 -44 5 -50 0 -14
-11 -218 -27 -282 -22 -49 4 -53 2 -64 -22 -7 -14 -19 -26 -27 -26 -13 0 -13
3 1 18 10 10 14 22 10 25 -12 13 -42 7 -52 -10 -9 -16 -10 -16 -11 -1 0 13
-15 17 -85 23 -47 4 -97 5 -112 2 -15 -3 -35 -2 -43 3 -8 4 -59 10 -112 13
-110 6 -113 4 -73 -55 30 -44 35 -45 320 -53 105 -3 228 -10 275 -16 137 -17
413 -36 432 -30 10 4 31 28 48 54 29 47 70 65 70 32 0 -18 27 -20 33 -2 3 9
55 11 233 7 126 -3 332 -5 458 -5 l228 0 35 40 c29 33 80 117 128 209 15 29
39 34 30 7 -6 -20 -4 -21 22 -15 15 3 35 14 44 24 9 10 42 35 75 56 32 21 53
39 46 42 -16 5 -66 -15 -114 -46 -21 -13 -44 -22 -53 -18 -12 4 -7 21 30 92
24 48 52 112 61 143 9 31 24 75 35 98 22 49 23 64 7 84 -10 12 -22 14 -53 8z
m-137 -55 c34 -10 26 -22 -20 -31 -47 -10 -60 -28 -25 -37 17 -4 23 -12 21
-28 -1 -13 -3 -27 -3 -32 -1 -5 -15 -6 -31 -2 -29 5 -32 3 -50 -40 -11 -25
-18 -50 -14 -55 3 -5 1 -9 -5 -9 -5 0 -13 5 -16 10 -3 6 -15 10 -25 10 -14 0
-19 -7 -19 -22 1 -13 -3 -36 -10 -51 -6 -16 -8 -39 -5 -51 3 -14 -1 -27 -10
-35 -9 -8 -16 -20 -16 -27 0 -8 -18 -43 -40 -78 -22 -35 -40 -68 -40 -74 0 -6
-9 -16 -20 -22 -11 -6 -30 -21 -43 -34 -28 -28 -96 -38 -217 -31 -77 4 -87 7
-106 31 -21 26 -22 26 -135 21 -64 -3 -121 -1 -131 4 -24 13 -23 36 2 51 11 7
20 19 20 26 0 10 7 12 26 8 16 -4 35 -1 49 8 20 13 25 13 35 1 28 -34 40 -17
40 54 0 38 2 84 5 102 5 33 5 33 -7 9 -7 -14 -18 -29 -25 -33 -7 -4 -13 -17
-13 -27 0 -11 -5 -20 -11 -20 -8 0 -10 13 -6 38 l6 37 -24 -28 c-14 -15 -25
-37 -25 -48 0 -10 -5 -19 -10 -19 -6 0 -8 11 -4 26 11 42 75 168 90 177 8 4
14 15 14 24 0 9 12 36 28 60 31 50 41 54 212 83 271 45 504 68 558 54z m90
-145 c-18 -37 -39 -69 -47 -69 -11 0 -11 4 1 23 8 12 17 33 21 47 7 33 30 91
42 110 8 12 11 9 13 -13 2 -17 -10 -56 -30 -98z m-1295 -13 c3 -8 -11 -36 -33
-63 -21 -27 -43 -64 -48 -83 l-10 -35 -1 42 c-1 23 3 44 8 48 5 3 13 19 16 36
7 31 37 69 54 69 5 0 11 -6 14 -14z m113 -88 c-18 -26 -22 -17 -5 14 6 11 13
17 16 15 3 -3 -2 -16 -11 -29z m1004 -8 c0 -5 -2 -10 -4 -10 -3 0 -8 5 -11 10
-3 6 -1 10 4 10 6 0 11 -4 11 -10z m30 -30 c0 -5 -9 -14 -19 -20 -11 -5 -22
-23 -26 -40 -5 -23 -12 -30 -30 -30 -14 0 -29 9 -35 20 -9 18 -5 22 35 42 25
12 45 26 45 30 0 4 7 8 15 8 8 0 15 -4 15 -10z m-1671 -156 c-6 -27 -15 -58
-20 -69 -16 -40 -10 20 8 74 20 64 28 60 12 -5z m257 -49 c-4 -25 -11 -45 -17
-45 -12 0 -11 16 2 63 14 51 23 40 15 -18z m289 -17 c-8 -47 -25 -75 -25 -41
0 23 19 83 27 83 3 0 2 -19 -2 -42z m145 -28 c0 -17 -9 -39 -20 -50 -11 -11
-20 -26 -20 -34 0 -18 -17 -30 -24 -17 -9 14 13 114 27 123 24 15 37 8 37 -22z
m-116 -79 c3 -5 -1 -12 -10 -15 -22 -9 -24 -8 -24 9 0 16 25 21 34 6z m-564
-61 c0 -5 -7 -10 -15 -10 -8 0 -15 5 -15 10 0 6 7 10 15 10 8 0 15 -4 15 -10z"/>
<path d="M3385 3840 c3 -5 11 -10 16 -10 6 0 7 5 4 10 -3 6 -11 10 -16 10 -6
0 -7 -4 -4 -10z"/>
<path d="M3235 3820 c-3 -6 1 -7 9 -4 18 7 21 14 7 14 -6 0 -13 -4 -16 -10z"/>
<path d="M3302 3560 c2 -65 -4 -79 -26 -61 -11 10 -20 10 -37 1 -17 -9 -19
-14 -8 -20 11 -7 11 -13 -1 -34 -12 -23 -11 -28 4 -45 10 -11 15 -24 12 -30
-8 -13 73 -25 112 -16 57 12 118 60 156 123 34 57 44 91 29 105 -3 4 -14 -6
-24 -23 -10 -16 -32 -36 -49 -45 -16 -8 -30 -22 -30 -29 0 -7 -7 -19 -15 -26
-13 -10 -17 -7 -31 25 -16 39 -15 44 8 49 64 15 79 21 94 37 30 33 11 50 -51
44 -30 -2 -64 -10 -75 -17 -18 -11 -23 -10 -34 5 -25 34 -37 20 -34 -43z m74
-148 c-2 -2 -14 1 -26 8 -11 6 -30 8 -40 5 -28 -9 -25 8 3 20 17 8 27 6 44 -9
13 -11 21 -21 19 -24z"/>
<path d="M5014 3975 c-10 -26 7 -35 69 -35 69 0 93 10 84 34 -7 19 -49 21 -80
5 -16 -9 -22 -9 -25 0 -5 16 -42 14 -48 -4z"/>
<path d="M9530 3955 c0 -8 5 -15 10 -15 6 0 10 7 10 15 0 8 -4 15 -10 15 -5 0
-10 -7 -10 -15z"/>
<path d="M2280 3952 c0 -4 -14 -16 -31 -26 -32 -19 -35 -43 -4 -38 22 4 85 51
85 63 0 5 -11 9 -25 9 -14 0 -25 -4 -25 -8z"/>
<path d="M4323 3910 c0 -30 2 -43 4 -27 2 15 2 39 0 55 -2 15 -4 2 -4 -28z"/>
<path d="M2145 3940 c-3 -5 -2 -10 4 -10 5 0 13 5 16 10 3 6 2 10 -4 10 -5 0
-13 -4 -16 -10z"/>
<path d="M1221 3875 c-17 -19 -27 -23 -36 -15 -17 14 -23 4 -31 -51 -3 -24
-17 -94 -30 -155 -30 -139 -31 -174 -5 -174 11 0 23 -4 26 -10 3 -5 12 -10 18
-10 9 0 13 35 14 122 1 68 7 126 13 132 5 5 10 19 10 31 0 23 25 76 59 123 20
29 21 32 4 32 -10 0 -29 -12 -42 -25z"/>
<path d="M2291 3870 c-30 -26 -14 -26 19 0 14 11 21 20 15 19 -5 0 -21 -9 -34
-19z"/>
<path d="M1586 3798 c-51 -108 -97 -342 -73 -364 14 -13 119 -25 134 -16 5 4
13 27 17 51 8 54 82 283 108 334 21 43 22 42 -64 51 -31 3 -63 9 -72 12 -11 4
-24 -12 -50 -68z m21 -290 c-3 -8 -6 -5 -6 6 -1 11 2 17 5 13 3 -3 4 -12 1
-19z"/>
<path d="M8237 3843 c-10 -10 -8 -53 2 -53 10 0 21 24 21 46 0 15 -12 19 -23
7z"/>
<path d="M1839 3826 c-1 -6 -1 -15 0 -20 3 -17 -57 -126 -76 -139 -7 -4 -17
-24 -23 -45 -16 -52 -37 -191 -30 -201 8 -12 88 -22 94 -12 4 5 18 5 36 -2 37
-14 50 -3 57 49 6 52 59 218 86 272 15 28 30 45 47 48 14 3 29 7 35 8 5 2 -1
9 -15 16 -34 19 -210 40 -211 26z m72 -103 c-24 -46 -28 -28 -5 25 9 20 18 32
21 25 2 -6 -5 -29 -16 -50z m-71 -215 c-17 -77 -19 -83 -30 -72 -8 8 3 63 25
123 13 33 16 -3 5 -51z"/>
<path d="M1305 3780 c-15 -23 -9 -179 9 -222 20 -46 31 -47 51 -8 20 38 19 49
-4 43 -25 -6 -33 16 -40 117 -4 61 -9 81 -16 70z"/>
<path d="M1384 3714 c-4 -11 -9 -22 -11 -26 -7 -12 12 -9 31 5 16 12 16 14 2
26 -13 11 -17 10 -22 -5z"/>
<path d="M8040 3720 c-8 -5 -11 -12 -8 -15 4 -4 17 0 30 9 24 17 5 23 -22 6z"/>
<path d="M1455 3658 c-14 -29 -25 -59 -25 -66 0 -7 -10 -31 -22 -52 -22 -38
-19 -65 4 -42 7 7 20 12 29 12 13 0 18 13 23 53 4 29 14 66 21 81 8 16 15 37
15 47 0 35 -21 20 -45 -33z"/>
<path d="M8095 3680 c-3 -5 -13 -7 -23 -4 -16 5 -16 5 1 -6 9 -6 17 -22 17
-36 0 -40 24 -23 27 19 2 35 -9 48 -22 27z"/>
<path d="M1245 3580 c-3 -5 3 -10 15 -10 12 0 18 5 15 10 -3 6 -10 10 -15 10
-5 0 -12 -4 -15 -10z"/>
<path d="M1251 3504 c-10 -23 -9 -26 4 -21 8 4 15 2 15 -3 0 -15 36 -12 49 4
10 11 6 17 -20 30 -18 9 -33 16 -34 16 -1 0 -7 -12 -14 -26z"/>
<path d="M4152 3523 c-21 -8 -62 -49 -62 -62 0 -6 -4 -11 -10 -11 -5 0 -10
-10 -10 -22 l1 -23 20 25 c11 14 31 38 45 54 25 30 37 47 32 45 -2 0 -9 -3
-16 -6z"/>
<path d="M3842 3490 c0 -14 2 -19 5 -12 2 6 2 18 0 25 -3 6 -5 1 -5 -13z"/>
<path d="M3820 3448 c0 -9 5 -20 10 -23 13 -8 13 5 0 25 -8 13 -10 13 -10 -2z"/>
<path d="M5770 3420 c0 -16 5 -30 10 -30 6 0 10 14 10 30 0 17 -4 30 -10 30
-5 0 -10 -13 -10 -30z"/>
<path d="M1140 3430 c-34 -5 -34 -6 -13 -18 12 -6 38 -12 57 -12 19 0 57 -4
83 -9 26 -5 78 -12 115 -15 l68 -5 -3 32 c-3 35 -4 35 -77 17 -43 -11 -129 -6
-174 9 -12 4 -37 4 -56 1z"/>
<path d="M3787 3380 c-9 -22 -17 -49 -17 -59 0 -11 -4 -23 -10 -26 -5 -3 -10
-13 -10 -21 0 -12 5 -11 26 5 15 12 33 21 41 21 11 0 10 5 -4 26 -13 21 -14
30 -5 45 14 21 16 49 4 49 -4 0 -15 -18 -25 -40z"/>
<path d="M5783 3295 c0 -27 2 -38 4 -22 2 15 2 37 0 50 -2 12 -4 0 -4 -28z"/>
<path d="M1470 3230 c10 -19 40 -28 40 -12 0 13 -23 32 -37 32 -11 0 -11 -5
-3 -20z"/>
<path d="M5780 3197 c0 -26 5 -47 10 -47 6 0 8 16 4 43 -9 58 -14 59 -14 4z"/>
<path d="M979 3165 c-3 -3 1 -31 10 -64 12 -49 13 -67 2 -115 -14 -62 -32 -78
-60 -52 -16 15 -19 15 -35 -3 -28 -31 -42 -138 -27 -204 16 -72 49 -122 80
-122 33 0 37 14 50 143 12 118 9 141 -15 121 -24 -20 -16 -1 21 47 29 37 35
54 35 92 -1 98 -35 184 -61 157z"/>
<path d="M862 3099 c2 -7 10 -15 17 -17 8 -3 12 1 9 9 -2 7 -10 15 -17 17 -8
3 -12 -1 -9 -9z"/>
<path d="M5800 3070 c0 -21 30 -64 62 -89 44 -35 45 -24 1 22 -22 23 -45 51
-51 62 -8 14 -11 15 -12 5z"/>
<path d="M3585 3039 c-22 -12 -67 -29 -99 -38 -71 -19 -83 -38 -29 -46 21 -3
65 -10 98 -16 52 -9 68 -7 120 11 33 11 71 23 85 25 14 3 36 8 50 12 14 3 34
6 45 7 24 1 32 34 11 42 -9 3 -28 -1 -42 -11 -20 -13 -28 -14 -40 -5 -7 7 -21
10 -29 6 -9 -3 -26 0 -38 8 -42 26 -89 28 -132 5z"/>
<path d="M2788 3022 c-16 -9 -28 -23 -28 -31 0 -12 3 -12 18 1 25 22 67 30 95
17 33 -15 60 -64 53 -94 -4 -14 -1 -34 6 -44 10 -17 9 -24 -12 -46 -13 -14
-41 -31 -62 -37 -34 -10 -42 -9 -68 11 -34 25 -39 20 -10 -9 11 -11 20 -26 20
-34 0 -12 7 -12 53 0 28 7 64 14 79 14 34 0 48 24 55 95 7 65 -21 131 -66 158
-37 22 -98 21 -133 -1z"/>
<path d="M1299 3011 c-23 -18 -24 -25 -24 -148 0 -70 -4 -133 -8 -140 -4 -7
11 -29 37 -55 42 -40 45 -46 39 -84 -7 -50 14 -74 63 -74 19 0 79 -7 132 -15
108 -17 456 -50 687 -65 83 -6 162 -12 177 -15 38 -6 54 16 35 52 -33 61 -48
113 -37 133 5 10 10 54 10 98 l0 79 -52 7 c-29 4 -64 7 -77 6 -13 0 -30 5 -38
12 -8 6 -34 11 -59 11 -42 0 -44 2 -44 29 0 15 -4 28 -10 28 -5 0 -10 -7 -10
-17 0 -9 -11 -31 -26 -50 -33 -43 -74 -45 -109 -5 -13 15 -25 36 -25 47 0 14
-3 16 -11 8 -8 -8 -7 -21 2 -47 17 -47 3 -58 -28 -21 -16 19 -27 26 -30 18
-17 -44 -60 30 -47 81 7 28 2 31 -26 16 -12 -6 -16 -17 -13 -30 3 -11 0 -20
-6 -20 -19 0 -12 -17 9 -23 11 -3 20 -13 20 -22 0 -14 -7 -16 -42 -11 -24 4
-65 6 -91 6 -41 -1 -49 2 -54 20 -3 11 -8 19 -12 18 -61 -32 -60 -32 -92 -9
-28 21 -32 21 -48 7 -25 -23 -58 -20 -73 7 -7 12 -13 47 -13 77 l-1 55 53 1
c38 1 50 -2 44 -10 -6 -7 -6 -18 -1 -25 6 -11 12 -9 31 8 28 26 40 26 73 0 21
-17 26 -18 26 -5 0 9 -7 16 -17 16 -9 0 -14 3 -10 6 3 4 45 8 92 9 72 3 86 1
81 -11 -3 -8 1 -14 9 -14 8 0 15 6 15 14 0 8 10 17 23 19 21 4 2 6 -165 12
-42 1 -80 5 -85 8 -5 3 -50 9 -99 12 -49 3 -103 8 -120 11 -22 3 -39 -2 -55
-15z m381 -251 c107 -10 220 -21 250 -24 30 -3 55 -6 55 -7 0 -1 57 -5 180
-13 28 -1 62 -3 76 -4 32 -2 42 -23 29 -57 -10 -26 -52 -35 -65 -15 -4 6 -16
8 -27 4 -13 -4 -24 0 -33 13 -13 16 -15 17 -30 2 -13 -12 -26 -14 -63 -8 -26
4 -65 8 -86 8 -22 1 -48 8 -58 17 -13 12 -21 14 -31 6 -15 -13 -66 -10 -298
14 -161 16 -170 18 -175 40 -13 52 -3 53 276 24z"/>
<path d="M1890 2970 c0 -14 26 -23 41 -15 8 6 7 10 -2 16 -19 12 -39 11 -39
-1z"/>
<path d="M1970 2970 c19 -13 30 -13 30 0 0 6 -10 10 -22 10 -19 0 -20 -2 -8
-10z"/>
<path d="M2048 2972 c-10 -2 -18 -8 -18 -13 0 -11 11 -11 30 1 18 11 11 18
-12 12z"/>
<path d="M2108 2963 c7 -3 16 -2 19 1 4 3 -2 6 -13 5 -11 0 -14 -3 -6 -6z"/>
<path d="M1685 2918 c-15 -50 -12 -70 12 -79 13 -5 25 -9 26 -9 1 0 2 23 3 50
0 42 -2 50 -18 50 -10 0 -20 -6 -23 -12z"/>
<path d="M1950 2918 c0 -4 7 -8 15 -8 8 0 15 4 15 8 0 5 -7 9 -15 9 -8 0 -15
-4 -15 -9z"/>
<path d="M3600 2912 c0 -5 -11 -13 -25 -16 -29 -7 -32 -21 -9 -34 18 -10 19
-28 10 -122 -4 -36 -8 -123 -10 -193 -3 -73 -9 -133 -15 -141 -9 -11 -5 -15
19 -19 44 -9 37 -31 -22 -66 -31 -18 -45 -31 -35 -31 11 0 21 -9 24 -20 3 -11
12 -20 19 -20 10 0 13 -7 8 -25 -5 -19 -2 -25 10 -25 12 0 14 -7 9 -32 -5 -27
-4 -30 11 -25 13 5 19 1 23 -13 8 -29 30 -25 47 8 12 22 13 42 5 98 -5 38 -9
195 -9 349 0 291 -4 326 -43 333 -9 2 -17 -1 -17 -6z m40 -752 c0 -5 -4 -10
-10 -10 -5 0 -10 5 -10 10 0 6 5 10 10 10 6 0 10 -4 10 -10z"/>
<path d="M1545 2900 c-9 -14 13 -50 30 -50 10 0 15 10 15 30 0 23 -5 30 -19
30 -11 0 -23 -4 -26 -10z"/>
<path d="M2003 2854 c-4 -11 1 -22 12 -31 16 -11 21 -11 33 1 8 8 12 22 9 30
-8 21 -46 21 -54 0z"/>
<path d="M3015 2770 c-83 -29 -124 -63 -126 -103 -9 -159 40 -249 152 -277 41
-10 51 -9 85 8 71 36 105 94 106 181 1 64 -30 144 -76 194 -30 33 -39 33 -141
-3z"/>
<path d="M2754 2726 c-8 -21 3 -36 27 -36 15 0 20 6 17 22 -4 27 -35 37 -44
14z"/>
<path d="M2740 2621 c0 -11 5 -23 10 -26 6 -4 10 5 10 19 0 14 -4 26 -10 26
-5 0 -10 -9 -10 -19z"/>
<path d="M2806 2610 c3 -19 8 -45 11 -56 7 -33 -13 -37 -32 -8 -9 14 -19 24
-21 21 -5 -5 35 -88 47 -97 3 -3 9 -15 13 -27 9 -27 21 -29 34 -7 15 26 3 56
-19 49 -24 -8 -25 13 -3 30 13 9 14 15 5 31 -6 10 -18 37 -26 59 l-15 40 6
-35z"/>
<path d="M2850 2404 c0 -12 65 -95 68 -86 5 15 -17 62 -29 62 -6 0 -9 7 -5 15
4 10 -1 15 -14 15 -11 0 -20 -3 -20 -6z"/>
<path d="M2068 2353 c7 -3 16 -2 19 1 4 3 -2 6 -13 5 -11 0 -14 -3 -6 -6z"/>
<path d="M2145 2345 c23 -8 135 -11 135 -3 0 4 -33 8 -72 7 -40 0 -68 -2 -63
-4z"/>
<path d="M2400 2331 c0 -9 62 -19 130 -22 54 -2 60 0 54 16 -5 12 -25 15 -95
15 -49 0 -89 -4 -89 -9z"/>
<path d="M1125 2099 c-4 -6 -5 -12 -2 -15 2 -3 7 2 10 11 7 17 1 20 -8 4z"/>
<path d="M6905 1700 c3 -5 12 -7 20 -3 21 7 19 13 -6 13 -11 0 -18 -4 -14 -10z"/>
<path d="M6748 1673 c6 -2 18 -2 25 0 6 3 1 5 -13 5 -14 0 -19 -2 -12 -5z"/>
<path d="M6408 1623 c6 -2 18 -2 25 0 6 3 1 5 -13 5 -14 0 -19 -2 -12 -5z"/>
<path d="M6248 1603 c6 -2 18 -2 25 0 6 3 1 5 -13 5 -14 0 -19 -2 -12 -5z"/>
<path d="M5393 1487 c-3 -5 -1 -13 5 -19 12 -12 85 -1 77 11 -7 12 -75 19 -82
8z"/>
</g>
</svg>
